<svg id="svg" version="1.1" xmlns="http://www.w3.org/2000/svg" xmlns:xlink="http://www.w3.org/1999/xlink" width="400" height="97.96747967479675" viewBox="0, 0, 400,97.96747967479675"><g id="svgg"><path id="path0" d="M24.750 16.245 C 24.108 16.375,23.371 16.525,23.111 16.579 C 22.548 16.697,21.218 17.307,20.750 17.661 C 20.210 18.070,18.167 20.218,18.167 20.377 C 18.167 20.457,17.973 20.776,17.736 21.087 C 17.431 21.486,17.337 21.762,17.414 22.034 C 17.483 22.278,17.468 22.340,17.374 22.205 C 16.861 21.471,15.667 26.342,15.667 29.167 C 15.667 31.420,16.375 35.282,16.700 34.798 C 16.790 34.664,16.807 34.740,16.747 35.002 C 16.616 35.569,17.130 36.817,17.358 36.487 C 17.477 36.315,17.492 36.357,17.412 36.639 C 17.299 37.038,18.403 39.500,18.695 39.500 C 18.771 39.500,18.833 39.594,18.833 39.709 C 18.833 40.623,23.799 45.677,24.451 45.427 C 24.564 45.383,24.707 45.431,24.770 45.533 C 24.840 45.645,24.809 45.671,24.692 45.599 C 24.578 45.529,24.500 45.586,24.500 45.740 C 24.500 45.883,24.579 46.000,24.677 46.000 C 24.774 46.000,24.802 46.083,24.739 46.184 C 24.658 46.316,24.588 46.309,24.497 46.162 C 24.361 45.942,24.045 46.332,23.654 47.203 C 23.393 47.786,23.672 48.167,24.359 48.167 C 24.626 48.167,24.877 48.260,24.917 48.375 C 25.037 48.720,25.092 58.474,24.973 58.400 C 24.454 58.078,24.466 68.847,24.988 71.750 C 25.337 73.687,25.364 74.164,25.243 76.250 C 25.033 79.862,25.009 80.171,24.841 81.417 C 24.489 84.030,24.677 86.333,25.243 86.333 C 25.619 86.333,25.691 85.786,25.635 83.382 C 25.606 82.181,25.629 81.226,25.684 81.260 C 26.174 81.565,26.193 72.838,25.710 69.833 C 25.362 67.669,25.075 60.904,25.362 61.628 C 25.462 61.881,25.478 61.875,25.490 61.583 C 25.497 61.400,25.614 60.275,25.748 59.083 C 25.898 57.765,25.995 55.308,25.997 52.805 C 26.001 48.061,25.981 48.167,26.851 48.167 C 27.552 48.167,27.700 47.852,27.327 47.156 C 27.117 46.762,26.802 46.724,26.950 47.111 C 27.022 47.298,26.993 47.349,26.861 47.267 C 26.742 47.194,26.708 46.975,26.774 46.712 C 26.860 46.372,26.830 46.299,26.637 46.373 C 26.312 46.498,26.349 45.948,26.693 45.548 C 27.425 44.696,27.048 44.237,26.099 44.824 L 25.523 45.180 24.417 44.423 C 23.300 43.658,23.069 43.540,23.243 43.822 C 23.296 43.907,23.271 44.019,23.188 44.070 C 23.106 44.121,22.999 44.014,22.951 43.831 C 22.903 43.649,22.932 43.542,23.016 43.593 C 23.452 43.862,23.044 43.351,22.083 42.423 C 21.488 41.847,21.000 41.291,21.000 41.188 C 21.000 41.085,20.939 41.000,20.865 41.000 C 20.791 41.000,20.487 40.654,20.189 40.231 C 19.678 39.506,19.634 39.480,19.404 39.773 C 19.182 40.056,19.177 40.045,19.347 39.648 C 19.505 39.276,19.469 39.111,19.100 38.526 C 18.862 38.149,18.667 37.726,18.667 37.587 C 18.667 37.447,18.600 37.333,18.518 37.333 C 18.436 37.333,18.320 37.138,18.260 36.898 C 18.200 36.659,18.005 36.153,17.827 35.773 C 17.649 35.394,17.386 34.671,17.244 34.167 C 17.103 33.662,16.908 32.987,16.813 32.667 C 16.624 32.030,16.495 25.555,16.677 25.850 C 16.740 25.952,16.839 25.833,16.903 25.580 C 16.965 25.331,16.979 25.090,16.933 25.044 C 16.887 24.998,16.958 24.851,17.091 24.718 C 17.224 24.585,17.333 24.334,17.333 24.160 C 17.333 23.806,18.245 21.907,18.627 21.465 C 18.763 21.308,18.828 21.060,18.772 20.914 C 18.716 20.769,18.740 20.692,18.824 20.744 C 19.030 20.871,19.891 19.729,19.756 19.509 C 19.697 19.414,19.746 19.374,19.866 19.419 C 19.986 19.464,20.311 19.287,20.589 19.025 C 20.867 18.764,21.263 18.460,21.469 18.350 C 21.675 18.240,21.792 18.067,21.729 17.966 C 21.663 17.859,21.691 17.829,21.797 17.894 C 21.896 17.956,22.289 17.882,22.669 17.730 C 23.111 17.553,23.287 17.408,23.158 17.328 C 23.046 17.259,23.284 17.239,23.686 17.283 C 24.112 17.330,24.714 17.261,25.132 17.116 C 25.688 16.923,26.098 16.901,26.965 17.018 C 29.824 17.403,29.726 17.397,29.584 17.167 C 29.493 17.021,29.513 16.989,29.644 17.069 C 29.751 17.135,29.803 17.247,29.760 17.317 C 29.677 17.452,30.700 17.997,31.047 18.004 C 31.159 18.006,31.438 18.154,31.667 18.333 C 32.138 18.702,32.583 18.778,32.401 18.458 C 32.336 18.344,32.551 18.503,32.879 18.812 C 33.206 19.121,33.440 19.463,33.398 19.572 C 33.356 19.682,33.474 19.909,33.661 20.078 C 33.847 20.247,34.000 20.479,34.000 20.594 C 34.000 20.709,34.208 20.979,34.461 21.194 C 34.715 21.408,34.898 21.710,34.868 21.865 C 34.746 22.488,35.631 23.296,35.921 22.827 C 36.082 22.566,35.453 21.170,35.167 21.154 C 34.990 21.144,34.979 21.115,35.129 21.055 C 35.347 20.967,34.858 19.955,34.418 19.583 C 34.310 19.492,34.129 19.244,34.017 19.034 C 33.879 18.774,33.716 18.681,33.513 18.746 C 33.334 18.803,33.121 18.722,32.982 18.545 C 32.770 18.276,32.776 18.270,33.046 18.482 C 33.437 18.789,33.592 18.616,33.240 18.264 C 33.069 18.093,32.829 18.027,32.607 18.089 C 32.354 18.159,32.316 18.143,32.476 18.032 C 32.750 17.842,32.698 17.802,31.207 17.065 C 30.440 16.686,29.957 16.556,29.407 16.579 C 28.994 16.596,28.740 16.558,28.844 16.494 C 29.419 16.138,26.238 15.945,24.750 16.245 M32.645 18.949 C 32.846 19.336,33.141 19.581,33.260 19.462 C 33.300 19.422,33.135 19.209,32.893 18.987 C 32.475 18.602,32.464 18.600,32.645 18.949 M23.248 19.387 C 22.791 19.692,22.433 20.022,22.453 20.120 C 22.473 20.221,22.345 20.262,22.161 20.213 C 21.859 20.135,21.745 20.303,21.818 20.721 C 21.831 20.796,21.765 20.811,21.672 20.753 C 21.173 20.445,18.906 23.640,19.326 24.059 C 19.705 24.439,20.665 23.433,20.529 22.798 C 20.515 22.732,20.616 22.721,20.752 22.774 C 20.898 22.830,21.000 22.774,21.000 22.638 C 21.000 22.511,21.141 22.287,21.313 22.139 C 21.485 21.992,21.654 21.806,21.688 21.727 C 21.791 21.487,23.450 20.167,23.648 20.167 C 23.750 20.167,23.833 20.097,23.833 20.011 C 23.833 19.925,24.096 19.760,24.417 19.644 C 24.789 19.509,25.000 19.325,25.000 19.133 C 25.000 18.647,24.180 18.766,23.248 19.387 M35.656 22.417 C 35.656 22.508,35.546 22.438,35.411 22.260 C 35.277 22.082,35.167 21.861,35.167 21.770 C 35.167 21.678,35.277 21.749,35.411 21.926 C 35.546 22.104,35.656 22.325,35.656 22.417 M221.583 22.164 C 219.741 23.046,217.486 26.638,217.434 28.776 C 217.424 29.156,217.368 29.389,217.308 29.292 C 217.102 28.958,216.615 31.067,215.658 36.445 C 215.460 37.561,215.347 38.555,215.409 38.654 C 215.470 38.752,215.445 38.833,215.355 38.833 C 215.248 38.833,215.245 39.024,215.345 39.374 C 215.529 40.016,215.531 40.390,215.348 39.921 C 215.257 39.688,215.156 40.008,215.006 41.004 C 214.861 41.966,214.586 42.859,214.143 43.802 C 213.786 44.564,213.544 45.277,213.607 45.385 C 213.669 45.494,213.657 45.526,213.580 45.456 C 213.433 45.323,213.132 45.832,211.999 48.130 C 211.625 48.888,211.372 49.594,211.435 49.697 C 211.499 49.800,211.478 49.840,211.389 49.785 C 211.224 49.682,210.167 51.365,210.167 51.732 C 210.167 51.843,210.098 52.005,210.013 52.092 C 209.929 52.179,209.530 52.887,209.126 53.667 C 207.898 56.038,207.991 55.962,207.555 54.951 C 207.349 54.474,207.177 53.986,207.173 53.867 C 207.170 53.748,207.017 53.340,206.833 52.961 C 206.650 52.581,206.500 52.174,206.500 52.056 C 206.500 51.853,206.316 51.404,205.397 49.371 C 205.179 48.888,205.000 48.384,205.000 48.252 C 205.000 47.712,204.436 46.794,204.301 47.115 C 204.230 47.284,204.216 47.149,204.269 46.809 C 204.322 46.470,204.277 46.039,204.166 45.833 C 204.024 45.566,204.020 45.414,204.151 45.282 C 204.251 45.182,204.333 44.916,204.333 44.692 C 204.333 44.468,204.475 43.864,204.647 43.350 C 205.594 40.532,205.712 40.117,206.336 37.417 C 206.441 36.958,206.645 36.133,206.787 35.583 C 207.712 32.017,207.662 27.104,206.684 25.568 C 205.424 23.588,200.992 24.453,199.984 26.875 C 199.879 27.127,199.728 27.333,199.649 27.333 C 199.570 27.333,199.420 27.671,199.316 28.083 C 199.212 28.496,199.070 28.833,198.999 28.833 C 198.929 28.833,198.836 29.040,198.792 29.292 C 198.749 29.544,198.653 29.894,198.578 30.071 C 198.466 30.335,198.495 30.371,198.742 30.276 C 199.026 30.167,199.027 30.183,198.764 30.585 C 198.611 30.819,198.533 31.086,198.591 31.179 C 198.648 31.272,198.595 31.469,198.473 31.616 C 198.244 31.891,198.170 35.418,198.354 37.250 C 198.400 37.708,198.451 38.332,198.469 38.635 C 198.487 38.953,198.570 39.143,198.666 39.084 C 198.776 39.015,198.776 39.128,198.666 39.419 C 198.574 39.659,198.541 40.058,198.592 40.303 C 198.644 40.549,198.752 41.050,198.833 41.417 C 198.915 41.783,199.028 42.304,199.085 42.575 C 199.162 42.938,199.227 43.005,199.333 42.833 C 199.421 42.692,199.441 42.868,199.386 43.282 C 199.326 43.728,199.410 44.332,199.627 45.024 C 199.811 45.607,200.048 46.404,200.155 46.796 C 200.262 47.189,200.420 47.466,200.506 47.413 C 200.592 47.360,200.620 47.429,200.567 47.567 C 200.428 47.927,200.666 48.269,200.852 47.976 C 200.947 47.825,200.996 47.816,200.997 47.948 C 200.999 48.058,200.925 48.193,200.833 48.250 C 200.742 48.307,200.667 48.497,200.667 48.672 C 200.667 48.848,200.522 49.312,200.346 49.704 C 199.756 51.015,199.380 51.912,199.156 52.542 C 199.033 52.885,198.885 53.167,198.826 53.167 C 198.767 53.167,198.632 53.458,198.526 53.814 C 198.419 54.169,198.220 54.554,198.083 54.667 C 197.945 54.781,197.833 55.005,197.833 55.165 C 197.833 55.324,197.683 55.646,197.500 55.879 C 197.317 56.112,197.167 56.388,197.167 56.493 C 197.167 56.598,196.981 56.958,196.754 57.292 C 196.370 57.857,196.360 57.920,196.613 58.200 C 196.777 58.381,196.809 58.500,196.692 58.500 C 196.587 58.500,196.500 58.406,196.500 58.292 C 196.500 58.177,196.312 58.301,196.083 58.568 C 195.854 58.834,195.667 59.141,195.667 59.250 C 195.667 59.359,195.517 59.584,195.333 59.750 C 195.150 59.916,195.000 60.127,195.000 60.218 C 195.000 60.310,194.824 60.617,194.610 60.901 C 193.253 62.695,192.446 63.990,192.833 63.750 C 192.925 63.693,193.000 63.731,193.000 63.835 C 193.000 63.942,192.867 63.980,192.689 63.924 C 192.463 63.852,192.250 63.996,191.904 64.454 C 191.642 64.800,190.904 65.594,190.262 66.218 C 189.413 67.046,189.156 67.390,189.316 67.489 C 189.470 67.584,189.480 67.659,189.351 67.739 C 189.250 67.802,189.167 67.781,189.167 67.692 C 189.167 67.495,188.535 67.642,188.393 67.872 C 188.337 67.963,188.394 68.109,188.520 68.196 C 188.690 68.313,188.663 68.331,188.416 68.263 C 188.206 68.205,187.805 68.354,187.333 68.668 C 186.921 68.941,186.490 69.166,186.375 69.166 C 186.260 69.166,186.167 69.223,186.167 69.293 C 186.167 69.645,183.676 70.344,182.062 70.445 C 180.654 70.534,178.658 70.129,178.333 69.689 C 178.288 69.627,178.048 69.447,177.801 69.290 C 176.211 68.279,175.279 65.129,175.925 62.953 C 176.743 60.201,178.530 58.786,181.554 58.497 C 182.871 58.372,183.067 58.308,183.438 57.887 C 183.863 57.404,183.905 56.329,183.504 56.196 C 183.410 56.164,183.333 56.041,183.333 55.921 C 183.333 55.133,179.386 55.670,178.320 56.603 C 178.175 56.730,177.999 56.833,177.929 56.833 C 177.587 56.833,176.155 58.534,176.248 58.829 C 176.303 58.999,176.270 59.186,176.175 59.245 C 176.069 59.311,176.046 59.237,176.116 59.050 C 176.379 58.351,175.683 59.214,175.245 60.132 C 174.051 62.632,173.950 66.159,175.020 67.936 C 175.192 68.222,175.333 68.542,175.333 68.646 C 175.333 69.024,177.406 71.167,177.771 71.167 C 177.875 71.167,178.055 71.283,178.173 71.424 C 178.291 71.566,178.485 71.644,178.606 71.598 C 178.726 71.552,178.883 71.606,178.954 71.718 C 179.325 72.304,181.935 72.493,184.250 72.101 C 185.812 71.836,186.205 71.696,186.057 71.457 C 185.997 71.361,186.027 71.330,186.123 71.390 C 186.690 71.740,190.324 69.330,189.792 68.957 C 189.659 68.864,189.715 68.848,189.947 68.913 C 190.407 69.042,192.510 67.009,194.000 64.996 C 194.229 64.687,194.529 64.311,194.667 64.160 C 194.937 63.865,195.009 63.757,195.943 62.250 C 196.284 61.700,196.613 61.212,196.675 61.167 C 196.810 61.066,197.333 60.063,197.333 59.905 C 197.333 59.843,197.221 59.886,197.083 60.000 C 196.946 60.114,196.833 60.155,196.833 60.092 C 196.833 60.028,196.946 59.864,197.083 59.726 C 197.233 59.577,197.333 59.552,197.333 59.665 C 197.333 59.951,197.617 59.715,197.885 59.205 C 199.410 56.304,201.448 52.044,201.591 51.458 C 201.748 50.816,201.965 50.888,202.098 51.625 C 202.159 51.969,202.350 52.545,202.522 52.906 C 202.693 53.267,202.833 53.666,202.833 53.792 C 202.833 53.918,203.021 54.431,203.250 54.932 C 203.479 55.433,203.667 55.957,203.667 56.097 C 203.667 56.236,203.792 56.590,203.945 56.883 C 204.098 57.177,204.281 57.679,204.352 58.000 C 204.422 58.321,204.638 59.023,204.832 59.560 C 205.203 60.593,205.220 60.802,205.066 62.469 C 204.794 65.426,208.106 66.568,208.813 63.762 C 209.011 62.975,209.056 60.217,208.863 60.700 C 208.801 60.856,208.735 60.368,208.717 59.617 C 208.689 58.433,208.740 58.157,209.092 57.554 C 209.317 57.171,209.500 56.754,209.500 56.629 C 209.500 56.503,209.582 56.318,209.681 56.219 C 209.781 56.119,210.139 55.448,210.477 54.727 C 210.815 54.006,211.213 53.229,211.362 53.000 C 211.510 52.771,211.687 52.396,211.755 52.167 C 211.823 51.938,211.931 51.712,211.995 51.667 C 212.059 51.621,212.405 50.994,212.764 50.273 C 213.123 49.552,213.574 48.655,213.766 48.280 L 214.116 47.598 214.034 51.825 C 213.944 56.549,214.241 60.667,214.879 63.500 C 215.075 64.371,215.248 65.220,215.262 65.386 C 215.325 66.098,216.352 69.000,216.541 69.000 C 216.610 69.000,216.667 69.146,216.667 69.325 C 216.667 69.737,217.009 70.500,217.193 70.500 C 217.270 70.500,217.333 70.650,217.333 70.833 C 217.333 71.017,217.391 71.167,217.462 71.167 C 217.533 71.167,217.735 71.434,217.911 71.761 C 218.410 72.688,220.042 74.257,221.220 74.942 C 223.881 76.490,228.035 76.333,230.662 74.586 C 231.306 74.158,231.833 73.742,231.833 73.662 C 231.833 73.583,232.021 73.315,232.250 73.068 C 232.744 72.535,232.838 71.435,232.403 71.268 C 231.966 71.100,231.839 71.152,231.934 71.458 C 232.017 71.723,232.007 71.722,231.832 71.449 C 231.627 71.129,231.167 71.326,231.167 71.735 C 231.167 72.133,228.990 73.990,228.308 74.173 C 227.803 74.310,227.664 74.418,227.740 74.617 C 227.819 74.823,227.792 74.840,227.616 74.694 C 227.492 74.591,226.934 74.513,226.375 74.521 C 224.241 74.551,222.237 73.185,221.236 71.017 C 220.999 70.504,220.745 69.968,220.673 69.828 C 220.601 69.687,220.487 69.312,220.419 68.995 C 220.351 68.677,220.237 68.342,220.165 68.250 C 219.293 67.127,218.610 60.447,218.701 53.917 C 218.728 51.992,218.750 49.310,218.750 47.958 C 218.750 46.606,218.816 45.500,218.897 45.500 C 218.978 45.500,219.002 45.246,218.952 44.936 C 218.902 44.626,218.928 44.305,219.010 44.223 C 219.092 44.141,219.180 43.420,219.205 42.621 C 219.230 41.822,219.295 41.168,219.350 41.167 C 219.405 41.167,219.500 40.406,219.561 39.476 C 219.663 37.911,219.718 37.710,220.293 36.768 C 221.314 35.095,221.496 34.772,221.685 34.292 C 221.785 34.040,221.925 33.833,221.998 33.833 C 222.071 33.833,222.258 33.515,222.414 33.125 C 222.569 32.736,222.746 32.380,222.807 32.334 C 222.958 32.218,224.000 30.119,224.000 29.930 C 224.000 29.845,224.100 29.658,224.223 29.513 C 224.688 28.964,225.650 25.565,225.661 24.436 C 225.681 22.201,223.753 21.127,221.583 22.164 M223.968 23.888 C 223.997 24.225,224.091 24.500,224.177 24.500 C 224.263 24.500,224.333 24.610,224.333 24.745 C 224.333 24.879,224.238 24.953,224.122 24.908 C 223.986 24.856,223.843 25.082,223.722 25.539 C 223.490 26.412,222.926 28.007,222.698 28.434 C 222.473 28.855,221.765 30.449,221.503 31.125 C 221.387 31.423,221.227 31.667,221.146 31.667 C 221.066 31.667,221.000 31.771,221.000 31.898 C 221.000 32.025,220.881 32.343,220.736 32.606 C 220.484 33.061,220.475 33.063,220.554 32.667 C 220.677 32.044,220.961 30.110,221.177 28.417 C 221.589 25.193,222.035 24.006,223.036 23.473 C 223.757 23.089,223.906 23.155,223.968 23.888 M17.099 23.859 C 17.168 23.971,17.145 24.007,17.045 23.944 C 16.949 23.885,16.828 24.002,16.776 24.203 C 16.723 24.404,16.642 24.531,16.597 24.485 C 16.473 24.362,16.683 23.667,16.843 23.667 C 16.919 23.667,17.034 23.753,17.099 23.859 M375.583 23.900 C 372.905 24.750,370.668 27.364,369.009 31.583 C 368.354 33.248,368.167 33.797,368.167 34.047 C 368.167 34.206,368.022 34.655,367.846 35.043 C 367.670 35.432,367.478 36.012,367.420 36.333 C 367.362 36.654,367.171 37.554,366.996 38.333 C 366.195 41.904,365.850 44.799,365.737 48.917 C 365.699 50.292,365.592 51.754,365.499 52.167 C 365.407 52.579,365.293 53.235,365.247 53.623 C 365.201 54.012,365.014 54.708,364.832 55.171 C 364.649 55.634,364.500 56.145,364.500 56.308 C 364.500 56.471,364.350 56.915,364.167 57.294 C 363.983 57.673,363.833 58.061,363.833 58.155 C 363.833 58.486,362.800 60.256,362.320 60.746 C 361.850 61.227,360.731 61.453,360.410 61.132 C 359.047 59.769,359.198 51.103,360.643 47.791 C 360.833 47.355,360.949 46.894,360.900 46.766 C 360.851 46.638,360.890 46.485,360.987 46.425 C 361.094 46.359,361.124 46.417,361.064 46.575 C 360.955 46.857,361.251 46.935,361.416 46.668 C 362.039 45.659,363.165 46.638,363.169 48.192 C 363.172 49.530,363.308 49.742,364.154 49.742 C 365.022 49.742,365.166 49.576,365.283 48.437 C 365.362 47.679,365.335 47.504,365.149 47.552 C 365.021 47.585,364.973 47.581,365.042 47.542 C 365.599 47.231,364.598 45.816,363.430 45.264 C 360.943 44.087,357.624 45.522,356.295 48.348 C 355.623 49.779,355.333 50.495,355.333 50.729 C 355.333 51.101,354.289 53.072,353.970 53.301 C 353.803 53.421,353.667 53.615,353.667 53.733 C 353.667 53.850,353.479 54.032,353.250 54.136 C 353.021 54.241,352.833 54.403,352.833 54.496 C 352.833 54.590,352.683 54.667,352.500 54.667 C 352.317 54.667,352.167 54.742,352.167 54.833 C 352.167 54.925,352.028 55.000,351.859 55.000 C 351.573 55.000,351.556 54.857,351.620 52.958 C 351.711 50.283,351.501 49.777,350.270 49.698 C 349.471 49.648,348.354 50.296,348.588 50.674 C 348.630 50.742,348.552 51.066,348.416 51.394 C 348.124 52.090,348.094 53.178,348.342 54.001 C 348.439 54.321,348.545 54.703,348.578 54.849 C 348.611 54.995,348.870 55.369,349.155 55.680 C 349.461 56.015,349.632 56.349,349.574 56.498 C 349.521 56.637,349.438 56.975,349.391 57.250 C 349.294 57.814,349.070 58.501,348.730 59.275 C 348.604 59.564,348.500 59.883,348.500 59.984 C 348.500 60.085,348.350 60.448,348.167 60.790 C 347.810 61.455,347.729 61.918,347.998 61.751 C 348.094 61.692,348.119 61.763,348.058 61.922 C 347.975 62.139,347.926 62.149,347.817 61.973 C 347.693 61.773,347.196 62.178,347.171 62.500 C 347.150 62.773,345.964 63.360,345.612 63.272 C 343.810 62.820,343.219 54.946,344.655 50.520 C 344.845 49.935,345.000 49.335,345.001 49.187 C 345.002 49.038,345.106 48.718,345.233 48.474 C 345.360 48.231,345.553 47.762,345.661 47.433 C 345.770 47.103,345.920 46.833,345.995 46.833 C 346.226 46.833,346.356 46.284,346.155 46.159 C 346.017 46.074,346.015 46.010,346.149 45.928 C 346.250 45.865,346.333 45.891,346.333 45.986 C 346.333 46.102,346.473 46.105,346.761 45.996 C 347.715 45.633,348.333 46.097,348.333 47.175 C 348.333 48.693,349.276 49.351,349.997 48.337 C 350.462 47.684,350.433 46.053,349.958 46.132 C 349.798 46.159,349.667 46.099,349.667 45.997 C 349.667 45.896,349.742 45.860,349.833 45.917 C 350.185 46.134,349.978 45.619,349.536 45.177 C 348.947 44.588,347.176 44.112,346.139 44.264 C 344.640 44.483,343.473 44.993,343.566 45.387 C 343.591 45.495,343.581 45.527,343.542 45.458 C 343.328 45.076,341.539 46.782,341.138 47.750 C 341.024 48.025,340.834 48.349,340.715 48.470 C 340.597 48.591,340.500 48.788,340.500 48.906 C 340.500 49.025,340.357 49.488,340.181 49.936 C 340.006 50.384,339.820 50.862,339.768 51.000 C 339.394 51.993,337.799 54.138,337.114 54.570 C 336.047 55.241,336.008 55.190,336.116 53.281 C 336.230 51.268,336.056 50.673,335.225 50.225 C 333.320 49.199,331.831 52.528,333.086 55.006 C 333.317 55.461,333.574 55.833,333.658 55.833 C 334.151 55.833,333.563 58.867,332.914 59.667 C 332.803 59.804,332.664 60.118,332.605 60.363 C 332.547 60.609,332.387 60.922,332.250 61.060 C 332.112 61.197,332.000 61.369,332.000 61.442 C 332.000 62.139,330.220 62.885,329.490 62.495 C 327.975 61.684,327.767 53.276,329.183 50.083 C 329.264 49.900,329.442 49.426,329.579 49.031 C 330.529 46.271,332.667 45.884,332.667 48.471 C 332.667 49.520,332.777 49.667,333.568 49.667 C 334.648 49.667,335.042 47.876,334.246 46.583 C 334.020 46.217,333.835 45.980,333.834 46.056 C 333.834 46.133,333.603 46.002,333.321 45.765 C 332.621 45.176,329.449 45.111,328.538 45.667 C 328.238 45.850,327.917 46.000,327.825 46.000 C 327.646 46.000,326.615 46.878,326.180 47.400 C 326.035 47.574,325.785 47.855,325.625 48.025 C 325.465 48.195,325.332 48.427,325.330 48.542 C 325.328 48.656,325.179 48.938,325.000 49.167 C 324.821 49.396,324.672 49.700,324.670 49.844 C 324.668 49.987,324.525 50.399,324.351 50.760 C 324.178 51.121,323.951 51.979,323.848 52.667 C 323.659 53.926,323.396 54.881,322.816 56.420 C 322.642 56.880,322.500 57.328,322.500 57.416 C 322.500 57.503,322.305 58.102,322.066 58.746 C 319.146 66.619,317.335 66.621,318.515 58.750 C 318.612 58.108,318.728 55.527,318.774 53.014 L 318.858 48.444 318.406 47.180 C 317.875 45.697,317.200 44.900,316.256 44.645 C 315.038 44.316,313.031 44.740,313.240 45.283 C 313.282 45.393,313.222 45.447,313.107 45.403 C 312.990 45.358,312.588 45.739,312.199 46.265 C 311.528 47.170,311.314 47.635,311.667 47.417 C 311.758 47.360,311.833 47.398,311.833 47.501 C 311.833 47.610,311.700 47.647,311.516 47.588 C 311.258 47.507,311.145 47.630,310.910 48.244 C 310.751 48.660,310.562 49.000,310.490 49.000 C 310.418 49.000,310.269 49.281,310.158 49.625 C 310.047 49.969,309.897 50.326,309.825 50.418 C 309.752 50.510,309.583 50.885,309.448 51.251 C 309.313 51.617,309.042 52.329,308.845 52.833 L 308.487 53.750 308.555 50.000 L 308.624 46.250 309.237 45.083 C 309.574 44.442,309.917 43.804,309.998 43.667 C 310.079 43.529,310.243 43.173,310.363 42.875 C 310.483 42.577,310.638 42.333,310.707 42.333 C 310.777 42.333,310.833 42.209,310.833 42.056 C 310.833 41.904,311.026 41.451,311.261 41.049 C 311.497 40.647,311.696 40.099,311.703 39.832 C 311.711 39.564,311.777 39.382,311.850 39.427 C 312.080 39.569,312.366 38.822,312.259 38.359 C 312.185 38.041,312.202 37.985,312.319 38.161 C 312.494 38.425,312.436 38.536,313.275 36.333 C 314.178 33.960,314.387 33.211,314.402 32.294 C 314.410 31.768,314.442 31.412,314.473 31.503 C 314.659 32.056,314.833 31.251,314.833 29.837 C 314.833 25.791,312.393 24.808,308.981 27.481 C 308.266 28.041,308.020 28.344,307.314 29.540 C 307.165 29.791,306.967 30.091,306.874 30.206 C 306.135 31.122,304.445 37.203,304.427 39.015 C 304.421 39.556,304.371 39.999,304.316 39.999 C 304.112 40.001,303.678 44.348,303.571 47.468 C 303.480 50.122,303.406 50.799,303.147 51.335 C 302.975 51.692,302.831 52.081,302.828 52.200 C 302.825 52.319,302.677 52.717,302.500 53.083 C 302.323 53.450,302.175 53.847,302.172 53.966 C 302.169 54.085,302.017 54.493,301.833 54.873 C 301.650 55.252,301.500 55.680,301.499 55.823 C 301.499 55.966,301.358 56.313,301.187 56.595 C 301.015 56.876,300.822 57.289,300.758 57.511 C 300.694 57.734,300.501 58.217,300.329 58.583 C 299.087 61.233,298.775 61.833,298.640 61.833 C 298.555 61.833,298.505 61.927,298.529 62.042 C 298.649 62.620,297.088 64.254,296.596 64.065 C 295.966 63.823,296.059 59.035,296.751 56.088 C 296.902 55.449,297.091 54.399,297.173 53.754 C 297.255 53.110,297.436 52.021,297.577 51.333 C 297.902 49.748,297.910 48.168,297.596 47.740 C 297.294 47.329,295.287 47.333,294.458 47.746 C 293.788 48.080,291.801 48.500,290.887 48.500 L 290.190 48.500 290.345 47.959 C 290.739 46.587,290.460 42.500,289.973 42.500 C 289.896 42.500,289.833 42.379,289.833 42.232 C 289.833 42.067,289.741 42.000,289.592 42.057 C 289.427 42.120,289.381 42.070,289.447 41.899 C 289.609 41.476,287.761 41.627,287.350 42.070 C 286.392 43.104,285.566 47.000,286.306 47.000 C 286.382 47.000,286.445 47.094,286.447 47.208 C 286.453 47.822,287.607 49.667,287.985 49.667 C 288.218 49.667,288.216 49.691,287.904 50.719 C 287.605 51.702,287.143 52.869,286.572 54.083 C 286.356 54.542,285.980 55.348,285.737 55.875 C 285.493 56.402,285.243 56.833,285.181 56.833 C 285.118 56.833,284.976 57.085,284.865 57.393 C 284.753 57.700,284.513 58.087,284.331 58.252 C 284.149 58.417,284.000 58.620,284.000 58.704 C 284.000 59.161,281.467 61.781,280.875 61.937 C 280.669 61.992,280.500 62.088,280.500 62.151 C 280.500 62.353,279.418 62.667,278.723 62.667 C 277.964 62.667,276.850 61.952,276.839 61.458 C 276.836 61.298,276.770 61.167,276.693 61.167 C 276.492 61.167,276.167 60.389,276.167 59.909 C 276.167 59.684,276.096 59.500,276.010 59.500 C 275.924 59.500,275.898 59.229,275.953 58.891 C 276.028 58.430,276.002 58.313,275.845 58.409 C 275.686 58.508,275.659 58.330,275.730 57.644 C 276.018 54.838,276.022 54.377,275.758 54.276 C 275.616 54.222,275.500 54.085,275.500 53.972 C 275.500 53.820,275.548 53.815,275.688 53.955 C 275.803 54.069,275.982 54.087,276.146 54.001 C 276.295 53.923,276.979 53.688,277.667 53.479 C 278.354 53.270,278.992 53.035,279.083 52.957 C 279.175 52.878,279.497 52.667,279.800 52.488 C 280.102 52.308,280.314 52.103,280.270 52.032 C 280.226 51.961,280.345 51.891,280.534 51.877 C 280.978 51.843,281.850 50.838,281.764 50.458 C 281.728 50.298,281.778 50.118,281.875 50.058 C 281.985 49.990,282.002 50.029,281.919 50.163 C 281.835 50.298,281.861 50.352,281.990 50.309 C 282.186 50.243,282.400 49.906,282.836 48.970 C 282.950 48.725,283.007 48.331,282.962 48.095 C 282.916 47.860,282.944 47.667,283.023 47.667 C 283.225 47.667,283.203 46.209,283.000 46.083 C 282.908 46.027,282.833 46.060,282.833 46.157 C 282.833 46.254,282.758 46.333,282.667 46.333 C 282.437 46.333,282.456 45.876,282.689 45.798 C 282.819 45.755,282.792 45.569,282.601 45.201 C 282.325 44.667,281.876 44.437,282.064 44.925 C 282.121 45.074,282.093 45.141,281.998 45.082 C 281.907 45.026,281.833 44.844,281.833 44.677 C 281.833 44.335,281.517 44.023,281.059 43.914 C 279.211 43.472,279.082 43.462,277.925 43.678 C 277.279 43.798,276.684 43.879,276.604 43.858 C 276.524 43.837,276.336 43.926,276.187 44.056 C 276.039 44.187,275.687 44.409,275.407 44.551 C 274.071 45.227,272.431 47.444,272.608 48.334 C 272.685 48.719,272.663 48.851,272.533 48.771 C 272.431 48.708,272.390 48.546,272.442 48.411 C 272.493 48.277,272.492 48.167,272.438 48.167 C 272.284 48.167,271.667 49.454,271.663 49.785 C 271.660 49.949,271.510 50.526,271.329 51.068 C 271.148 51.609,271.000 52.255,271.000 52.504 C 271.000 52.752,270.862 53.322,270.693 53.769 C 269.848 56.009,269.696 56.665,269.981 56.846 C 270.196 56.982,270.175 56.995,269.875 56.913 C 269.597 56.837,269.500 56.881,269.500 57.084 C 269.500 57.805,267.323 63.168,266.974 63.306 C 266.897 63.336,266.833 63.453,266.833 63.566 C 266.833 63.822,265.967 64.667,265.705 64.667 C 265.102 64.667,265.010 62.795,265.428 59.005 C 265.571 57.700,265.647 56.591,265.596 56.540 C 265.545 56.489,265.581 56.353,265.677 56.237 C 266.222 55.581,265.990 48.323,265.388 47.170 C 265.267 46.939,265.168 46.657,265.168 46.544 C 265.167 46.430,265.035 46.174,264.875 45.975 C 262.443 42.960,259.565 44.290,257.253 49.500 C 257.111 49.821,256.893 50.308,256.770 50.583 C 255.891 52.543,255.803 52.815,255.898 53.270 C 255.954 53.534,255.922 53.862,255.828 54.000 C 255.701 54.185,255.685 54.120,255.765 53.750 C 255.869 53.270,255.862 53.264,255.610 53.583 C 255.368 53.889,255.355 53.603,255.446 50.167 C 255.554 46.101,255.499 46.367,256.687 44.167 C 257.492 42.676,258.016 41.448,257.935 41.239 C 257.881 41.098,257.903 41.023,257.983 41.073 C 258.169 41.188,258.426 40.867,258.576 40.333 C 258.755 39.695,259.157 38.859,259.338 38.747 C 259.427 38.692,259.500 38.535,259.500 38.399 C 259.500 38.262,259.650 37.840,259.833 37.461 C 260.017 37.081,260.167 36.674,260.167 36.556 C 260.167 36.439,260.310 36.021,260.485 35.629 C 261.608 33.120,262.149 28.782,261.512 27.399 C 260.897 26.064,259.081 25.684,257.333 26.525 C 256.397 26.976,255.000 28.146,255.000 28.481 C 255.000 28.583,254.924 28.667,254.831 28.667 C 254.738 28.667,254.498 29.004,254.298 29.417 C 254.098 29.829,253.874 30.167,253.800 30.167 C 253.727 30.167,253.667 30.309,253.667 30.483 C 253.667 30.657,253.480 31.126,253.252 31.525 C 253.024 31.924,252.836 32.441,252.835 32.675 C 252.834 32.909,252.763 33.171,252.676 33.258 C 252.458 33.478,251.663 36.837,251.495 38.250 C 251.419 38.892,251.207 40.354,251.026 41.500 C 250.844 42.646,250.695 44.290,250.694 45.154 C 250.693 47.393,250.501 49.793,250.253 50.667 C 250.136 51.079,249.877 51.962,249.677 52.628 C 249.470 53.314,249.361 53.991,249.424 54.190 C 249.494 54.411,249.473 54.503,249.365 54.436 C 249.193 54.330,248.731 55.385,248.601 56.183 C 248.563 56.422,248.374 56.961,248.182 57.382 C 247.990 57.804,247.833 58.263,247.833 58.402 C 247.833 58.542,247.683 58.924,247.500 59.250 C 247.317 59.576,247.167 59.962,247.167 60.107 C 247.167 60.253,247.024 60.644,246.851 60.977 C 246.677 61.311,246.325 62.018,246.069 62.550 C 244.127 66.583,243.214 63.291,243.838 54.500 C 243.926 53.262,244.037 51.500,244.085 50.583 C 244.133 49.667,244.328 47.500,244.517 45.769 C 244.803 43.163,244.824 42.596,244.639 42.480 C 244.469 42.371,244.485 42.338,244.708 42.336 C 244.957 42.334,245.000 42.167,245.002 41.208 C 245.006 39.272,244.946 39.333,246.845 39.333 C 249.603 39.333,250.764 38.894,250.584 37.917 C 250.428 37.068,249.941 36.716,249.292 36.981 C 248.564 37.278,247.432 37.478,246.405 37.490 L 245.560 37.500 245.572 35.518 C 245.578 34.429,245.629 33.610,245.685 33.699 C 245.811 33.899,246.007 32.502,246.089 30.827 C 246.166 29.245,246.044 29.146,243.903 29.063 C 241.911 28.986,240.637 30.044,241.488 31.069 C 241.627 31.236,241.629 31.318,241.496 31.363 C 241.392 31.397,241.298 31.872,241.281 32.445 C 241.264 33.006,241.205 33.394,241.151 33.306 C 241.096 33.219,240.913 33.979,240.743 34.996 L 240.435 36.844 239.676 36.746 C 239.258 36.693,238.429 36.540,237.833 36.407 C 229.992 34.655,224.601 34.678,222.534 36.471 C 221.831 37.080,222.131 38.167,223.001 38.167 C 223.524 38.167,224.628 37.412,224.301 37.278 C 224.181 37.229,224.338 37.233,224.650 37.287 C 225.035 37.354,225.275 37.310,225.400 37.151 C 225.610 36.882,225.878 36.851,228.500 36.793 C 230.576 36.746,232.647 37.014,237.167 37.912 C 237.946 38.067,238.977 38.268,239.458 38.359 C 240.248 38.508,240.325 38.560,240.241 38.894 C 240.190 39.098,240.133 39.655,240.116 40.131 C 240.098 40.608,240.039 40.998,239.984 40.999 C 239.929 40.999,239.839 41.844,239.784 42.875 C 239.728 43.906,239.597 45.301,239.493 45.975 C 239.388 46.649,239.329 47.530,239.361 47.933 C 239.393 48.337,239.362 48.667,239.293 48.667 C 239.223 48.667,239.167 49.118,239.167 49.670 C 239.167 50.453,239.075 50.818,238.750 51.333 C 238.521 51.696,238.333 52.041,238.333 52.099 C 238.333 52.416,236.818 54.195,236.233 54.566 C 235.279 55.171,234.987 55.143,235.091 54.458 C 235.156 54.030,235.140 53.986,235.015 54.250 C 234.863 54.571,234.856 54.569,234.845 54.208 C 234.838 53.981,234.932 53.833,235.083 53.833 C 235.464 53.833,235.434 51.471,235.044 50.812 C 234.484 49.863,232.719 49.855,232.382 50.800 C 232.327 50.956,232.200 51.188,232.101 51.315 C 231.471 52.123,231.911 54.885,232.814 55.788 L 233.304 56.278 232.957 57.347 C 232.324 59.297,231.425 61.193,230.802 61.889 C 230.422 62.313,230.255 62.618,230.366 62.687 C 230.614 62.840,228.977 62.654,228.664 62.493 C 228.160 62.234,227.646 60.947,227.486 59.545 C 227.336 58.221,227.339 52.813,227.490 53.220 C 227.530 53.328,227.667 52.967,227.793 52.417 C 228.204 50.633,228.438 49.758,228.618 49.333 C 228.714 49.104,228.904 48.654,229.039 48.333 C 229.924 46.228,231.781 46.146,231.849 48.208 C 231.863 48.644,231.894 49.075,231.917 49.167 C 231.940 49.258,231.968 49.408,231.979 49.500 C 232.022 49.842,233.238 49.673,233.516 49.286 C 234.174 48.374,233.710 46.001,232.875 46.000 C 232.760 46.000,232.667 45.934,232.667 45.854 C 232.667 45.598,231.691 45.291,231.239 45.404 C 230.958 45.475,230.843 45.453,230.913 45.340 C 231.039 45.135,230.685 45.131,229.083 45.317 C 227.588 45.490,226.096 46.322,226.255 46.893 C 226.332 47.166,226.316 47.193,226.188 47.007 C 225.902 46.592,223.833 49.116,223.833 49.879 C 223.833 50.009,223.711 50.361,223.561 50.662 C 222.952 51.882,222.559 55.471,222.822 57.417 C 223.153 59.878,223.282 60.412,223.806 61.500 C 224.535 63.015,224.834 63.410,225.946 64.337 C 228.478 66.446,233.089 63.439,233.952 59.116 C 234.297 57.383,234.729 56.770,235.856 56.419 C 236.759 56.137,237.084 55.918,238.042 54.941 C 238.660 54.310,239.169 53.859,239.172 53.938 C 239.175 54.018,239.205 55.396,239.238 57.000 C 239.349 62.298,240.479 65.569,242.517 66.493 C 243.464 66.923,244.338 66.926,244.879 66.500 C 245.112 66.317,245.366 66.163,245.443 66.157 C 245.794 66.134,246.389 65.137,246.151 64.971 C 245.954 64.834,245.956 64.819,246.163 64.875 C 246.464 64.957,246.917 64.556,247.155 63.998 C 247.253 63.770,247.407 63.471,247.497 63.333 C 247.732 62.978,248.500 61.218,248.500 61.036 C 248.500 60.953,248.624 60.636,248.775 60.333 C 249.329 59.224,249.883 57.568,249.900 56.974 C 249.909 56.639,249.973 56.400,250.042 56.442 C 250.110 56.485,250.180 56.384,250.196 56.218 C 250.212 56.052,250.287 57.492,250.364 59.417 C 250.556 64.253,250.547 64.167,250.912 64.434 C 251.282 64.705,254.259 64.761,254.667 64.504 C 254.858 64.384,254.959 63.730,255.097 61.715 C 255.215 59.990,255.381 58.796,255.580 58.250 C 255.747 57.792,256.034 57.015,256.218 56.525 C 256.402 56.034,256.551 55.284,256.550 54.858 C 256.549 54.271,256.577 54.184,256.668 54.500 C 256.798 54.954,256.787 54.969,257.261 53.667 C 257.412 53.254,257.664 52.565,257.821 52.136 C 257.979 51.706,258.190 51.256,258.291 51.135 C 258.391 51.014,258.528 50.695,258.596 50.427 C 258.663 50.159,258.894 49.680,259.109 49.363 C 259.526 48.749,259.612 48.333,259.323 48.333 C 259.226 48.333,259.198 48.250,259.261 48.149 C 259.342 48.017,259.411 48.022,259.500 48.167 C 259.584 48.302,259.799 48.118,260.146 47.613 C 260.664 46.860,261.167 46.544,261.509 46.756 C 261.697 46.872,261.672 50.832,261.484 50.833 C 260.659 50.837,260.697 64.254,261.524 64.765 C 261.602 64.813,261.667 64.968,261.667 65.108 C 261.667 67.233,265.909 68.046,267.167 66.163 C 267.304 65.957,267.545 65.664,267.702 65.513 C 267.859 65.361,268.104 64.977,268.246 64.660 C 268.389 64.343,268.574 63.971,268.659 63.833 C 268.743 63.696,268.957 63.246,269.133 62.833 C 269.309 62.421,269.651 61.650,269.893 61.121 C 270.135 60.592,270.334 60.030,270.335 59.871 C 270.337 59.713,270.511 59.209,270.722 58.752 L 271.107 57.920 271.461 59.223 C 272.098 61.566,273.473 63.384,275.333 64.342 C 277.038 65.220,281.744 64.577,281.752 63.465 C 281.753 63.314,281.822 63.129,281.904 63.053 C 281.989 62.975,282.002 63.006,281.934 63.125 C 281.858 63.256,281.916 63.333,282.089 63.333 C 282.443 63.333,284.041 61.681,283.941 61.419 C 283.899 61.309,283.931 61.114,284.013 60.985 C 284.118 60.819,284.162 60.811,284.164 60.958 C 284.169 61.350,284.473 61.167,284.854 60.542 C 285.064 60.198,285.295 59.892,285.368 59.861 C 285.441 59.831,285.500 59.711,285.500 59.595 C 285.500 59.480,285.650 59.249,285.833 59.083 C 286.017 58.917,286.167 58.674,286.167 58.542 C 286.167 58.410,286.305 58.102,286.474 57.859 C 286.643 57.616,286.985 56.967,287.234 56.417 C 287.483 55.867,287.833 55.139,288.010 54.800 C 288.188 54.461,288.333 54.065,288.333 53.919 C 288.333 53.773,288.484 53.359,288.667 52.999 C 288.851 52.639,289.082 51.966,289.182 51.503 C 289.386 50.549,289.693 50.159,290.220 50.183 C 290.556 50.199,290.552 50.210,290.167 50.333 C 289.889 50.422,290.263 50.472,291.292 50.483 C 293.100 50.503,293.011 50.327,292.433 52.744 C 291.558 56.405,291.437 62.634,292.214 64.083 C 292.653 64.903,292.775 65.112,293.070 65.552 C 293.781 66.610,296.008 67.184,297.133 66.599 C 297.561 66.377,299.333 64.633,299.333 64.434 C 299.333 64.382,299.581 63.945,299.884 63.462 C 300.437 62.577,301.115 61.195,301.826 59.500 C 302.037 58.996,302.274 58.433,302.352 58.250 C 302.735 57.347,302.813 57.007,302.660 56.913 C 302.572 56.858,302.501 56.724,302.503 56.615 C 302.504 56.495,302.567 56.514,302.661 56.663 C 302.785 56.859,302.869 56.790,303.069 56.330 C 303.316 55.759,303.320 55.776,303.327 57.349 C 303.357 64.660,303.359 64.667,306.094 64.667 L 307.958 64.667 308.063 64.146 C 308.120 63.859,308.167 62.691,308.167 61.549 C 308.167 59.745,308.224 59.308,308.601 58.215 C 308.958 57.181,308.995 56.929,308.809 56.796 C 308.635 56.672,308.648 56.656,308.865 56.725 C 309.077 56.793,309.195 56.662,309.341 56.199 C 310.765 51.669,313.503 46.486,314.308 46.795 C 314.561 46.892,314.551 52.815,314.297 53.006 C 313.723 53.438,313.656 62.172,314.212 64.043 C 315.327 67.792,318.170 68.648,320.413 65.910 C 320.736 65.516,321.000 65.075,321.000 64.930 C 321.000 64.785,321.067 64.667,321.149 64.667 C 321.230 64.667,321.419 64.385,321.569 64.042 C 321.718 63.698,321.984 63.192,322.158 62.917 C 322.333 62.642,322.481 62.303,322.488 62.164 C 322.495 62.025,322.650 61.632,322.833 61.290 C 323.017 60.948,323.172 60.536,323.179 60.376 C 323.186 60.215,323.320 59.791,323.478 59.434 L 323.765 58.785 323.962 59.640 C 325.101 64.572,329.206 66.589,332.169 63.672 C 333.234 62.624,334.538 60.156,335.169 57.995 L 335.536 56.739 336.599 56.418 C 337.183 56.242,337.869 55.913,338.122 55.688 C 339.384 54.566,339.257 54.586,339.192 55.516 C 339.133 56.352,339.737 60.463,340.009 61.083 C 341.547 64.586,342.354 65.370,344.529 65.473 C 347.440 65.612,349.290 63.310,350.868 57.589 C 351.064 56.880,351.167 56.746,351.590 56.659 C 352.531 56.463,353.587 55.876,354.292 55.157 C 354.924 54.511,355.000 54.474,355.000 54.810 C 355.000 55.067,355.066 55.147,355.208 55.061 C 355.349 54.977,355.342 55.028,355.187 55.219 C 354.653 55.878,355.274 59.162,356.306 61.133 C 357.502 63.416,359.640 64.331,361.697 63.438 C 362.317 63.169,362.835 62.669,362.269 62.886 C 362.093 62.954,362.023 62.930,362.089 62.825 C 362.147 62.730,362.332 62.697,362.499 62.750 C 363.122 62.947,364.685 60.748,365.495 58.536 C 365.706 57.960,365.922 57.533,365.976 57.587 C 366.108 57.719,366.651 59.988,366.660 60.443 C 366.672 61.059,367.382 62.245,367.524 61.885 C 367.616 61.653,367.646 61.643,367.655 61.842 C 367.661 61.984,367.590 62.177,367.496 62.271 C 367.379 62.387,367.446 62.623,367.704 63.012 C 367.913 63.326,368.183 63.771,368.306 64.000 C 368.919 65.150,370.494 65.838,371.950 65.592 C 372.821 65.445,375.333 63.030,375.333 62.340 C 375.333 62.232,375.521 61.899,375.750 61.598 C 376.243 60.952,376.309 60.456,375.880 60.620 C 375.627 60.718,375.622 60.700,375.839 60.467 C 376.007 60.286,376.119 60.261,376.199 60.388 C 376.304 60.555,377.009 59.170,377.583 57.667 C 377.706 57.346,378.051 56.446,378.350 55.667 C 378.650 54.887,378.896 53.970,378.898 53.628 C 378.899 53.286,378.956 53.096,379.025 53.207 C 379.171 53.443,379.179 53.424,379.676 51.667 C 380.206 49.794,380.257 49.333,379.935 49.333 C 379.787 49.333,379.667 49.258,379.667 49.167 C 379.667 48.857,379.176 48.997,378.938 49.375 C 378.808 49.581,378.579 50.252,378.429 50.866 C 378.173 51.909,377.958 52.526,377.134 54.563 C 376.954 55.010,376.842 55.517,376.887 55.688 C 376.932 55.860,376.901 55.959,376.818 55.907 C 376.736 55.856,376.583 56.025,376.479 56.282 C 376.375 56.540,376.082 57.200,375.829 57.750 C 375.576 58.300,375.320 58.912,375.261 59.110 C 375.202 59.308,375.044 59.561,374.910 59.672 C 374.776 59.783,374.667 59.981,374.667 60.112 C 374.667 60.840,372.658 63.333,372.071 63.333 C 371.050 63.333,370.433 59.213,370.436 52.417 C 370.438 47.391,370.364 47.768,371.780 45.570 C 372.130 45.028,372.604 44.211,372.833 43.755 C 373.063 43.299,373.381 42.779,373.542 42.599 C 373.702 42.418,373.833 42.145,373.833 41.991 C 373.833 41.837,373.969 41.533,374.135 41.314 C 374.301 41.096,374.647 40.467,374.904 39.917 C 375.161 39.367,375.550 38.562,375.769 38.128 C 375.988 37.694,376.167 37.235,376.167 37.107 C 376.167 36.979,376.274 36.785,376.406 36.676 C 376.538 36.566,376.696 36.238,376.759 35.947 C 376.821 35.655,376.926 35.342,376.992 35.250 C 377.058 35.158,377.380 34.371,377.708 33.500 C 380.222 26.813,379.316 22.717,375.583 23.900 M34.250 24.305 C 33.517 24.471,32.677 24.733,32.383 24.887 C 32.090 25.041,31.740 25.167,31.605 25.167 C 31.471 25.167,31.336 25.226,31.306 25.298 C 31.275 25.370,30.912 25.628,30.500 25.871 C 29.443 26.494,28.277 27.612,28.386 27.898 C 28.439 28.035,28.354 28.166,28.184 28.210 C 27.891 28.287,26.833 29.978,26.833 30.369 C 26.833 30.483,26.690 30.953,26.514 31.413 C 25.709 33.526,25.554 39.205,26.309 38.918 C 26.529 38.834,26.542 38.855,26.375 39.023 C 26.082 39.318,26.114 39.772,26.513 41.009 C 27.240 43.261,29.109 46.952,29.482 46.871 C 29.597 46.846,29.645 46.900,29.589 46.991 C 29.506 47.125,29.769 47.697,30.129 48.165 C 30.163 48.210,30.265 48.117,30.354 47.957 C 30.443 47.797,30.593 47.667,30.687 47.667 C 30.781 47.667,30.742 47.781,30.602 47.921 C 30.170 48.354,30.505 48.813,33.307 51.630 C 34.938 53.269,35.145 53.802,34.471 54.617 C 34.016 55.168,34.224 56.381,34.800 56.534 C 35.102 56.615,35.380 56.771,35.418 56.882 C 35.516 57.172,35.599 62.822,35.503 62.726 C 35.459 62.681,35.300 63.344,35.151 64.198 C 34.954 65.322,34.930 65.784,35.064 65.872 C 35.200 65.962,35.200 65.996,35.063 65.997 C 34.961 65.999,34.833 66.244,34.778 66.542 C 34.724 66.840,34.528 67.908,34.342 68.917 C 33.904 71.296,34.009 75.054,34.505 74.747 C 34.573 74.705,34.622 74.763,34.613 74.877 C 34.604 74.990,34.656 75.458,34.729 75.917 C 34.854 76.704,35.015 77.468,35.826 81.114 C 36.013 81.956,36.167 83.175,36.167 83.822 C 36.167 84.496,36.238 85.000,36.333 85.000 C 36.432 85.000,36.500 85.611,36.500 86.500 C 36.500 87.389,36.432 88.000,36.333 88.000 C 36.240 88.000,36.167 88.458,36.166 89.042 C 36.166 89.615,36.054 90.721,35.917 91.500 C 35.574 93.446,35.587 93.833,35.994 93.833 C 36.564 93.833,37.149 91.271,36.961 89.603 C 36.911 89.156,36.942 88.833,37.037 88.833 C 37.368 88.833,37.059 82.055,36.653 80.436 C 36.407 79.456,36.238 79.047,36.141 79.195 C 36.053 79.328,36.037 79.141,36.099 78.729 C 36.170 78.256,36.095 77.682,35.857 76.895 C 35.043 74.202,34.806 71.161,35.239 68.963 C 35.370 68.296,35.562 67.225,35.665 66.583 C 35.769 65.942,35.919 65.079,36.000 64.667 C 36.198 63.657,36.379 59.032,36.211 59.280 C 36.082 59.471,36.120 57.121,36.253 56.714 C 36.289 56.602,36.585 56.399,36.909 56.264 C 37.700 55.933,37.617 55.232,36.613 53.774 C 36.294 53.310,36.399 53.012,36.886 53.003 C 36.961 53.001,36.975 52.831,36.917 52.625 C 36.844 52.367,36.860 52.320,36.967 52.474 C 37.195 52.803,40.500 50.947,40.500 50.489 C 40.500 50.403,40.610 50.333,40.744 50.333 C 41.033 50.333,41.321 49.841,41.211 49.535 C 41.152 49.370,41.080 49.365,40.902 49.512 C 40.775 49.618,40.711 49.771,40.762 49.852 C 40.812 49.933,40.774 50.000,40.677 50.000 C 40.579 50.000,40.500 49.937,40.500 49.859 C 40.500 49.636,41.098 49.154,41.222 49.277 C 41.283 49.339,41.333 49.297,41.333 49.185 C 41.333 49.072,41.416 49.032,41.518 49.094 C 41.647 49.174,41.636 49.249,41.481 49.345 C 41.359 49.420,41.312 49.534,41.376 49.598 C 41.549 49.771,42.028 49.313,41.933 49.065 C 41.884 48.937,41.940 48.885,42.070 48.935 C 42.194 48.982,42.530 48.717,42.838 48.327 C 43.486 47.509,44.167 46.521,44.167 46.398 C 44.167 46.350,44.341 46.072,44.554 45.781 C 45.022 45.141,46.333 42.582,46.333 42.309 C 46.333 42.203,46.511 41.733,46.728 41.266 C 47.488 39.632,48.094 34.216,47.474 34.599 C 47.335 34.685,47.312 34.564,47.391 34.168 C 47.540 33.427,47.210 31.619,46.727 30.521 C 46.511 30.028,46.333 29.534,46.333 29.422 C 46.333 29.310,46.183 29.083,46.000 28.917 C 45.817 28.751,45.667 28.521,45.667 28.407 C 45.667 28.116,44.646 26.993,44.476 27.098 C 44.400 27.145,44.371 27.086,44.411 26.967 C 44.452 26.848,44.189 26.525,43.827 26.250 C 43.466 25.975,43.013 25.623,42.821 25.469 C 42.629 25.314,42.235 25.136,41.945 25.074 C 41.654 25.012,41.324 24.887,41.210 24.795 C 41.097 24.704,40.891 24.673,40.752 24.726 C 40.613 24.779,40.500 24.768,40.500 24.701 C 40.500 24.153,36.143 23.877,34.250 24.305 M162.478 24.486 C 161.669 24.600,160.058 25.491,160.119 25.791 C 160.139 25.888,160.009 25.927,159.828 25.880 C 159.602 25.821,159.500 25.878,159.500 26.062 C 159.500 26.210,159.347 26.425,159.160 26.540 C 158.837 26.740,157.167 29.012,157.167 29.252 C 157.167 29.314,157.031 29.564,156.865 29.808 C 156.698 30.051,156.352 30.738,156.094 31.333 C 155.837 31.929,155.527 32.642,155.405 32.917 C 155.283 33.192,154.989 34.054,154.751 34.833 C 154.512 35.612,154.240 36.475,154.146 36.750 C 153.809 37.733,153.007 41.376,153.096 41.520 C 153.146 41.601,153.117 41.667,153.033 41.667 C 152.948 41.667,152.829 42.218,152.768 42.893 C 152.707 43.567,152.588 44.360,152.503 44.655 C 152.419 44.949,152.266 46.402,152.163 47.883 C 151.961 50.806,151.821 51.398,150.326 55.667 C 149.860 56.996,149.435 58.271,149.381 58.500 C 149.326 58.729,149.189 59.067,149.076 59.250 C 148.963 59.433,148.778 59.883,148.664 60.250 C 148.551 60.617,148.361 61.029,148.242 61.167 C 148.123 61.304,147.971 61.636,147.904 61.904 C 147.685 62.782,146.392 64.500,145.950 64.500 C 145.108 64.500,145.141 59.260,146.017 53.771 C 146.191 52.682,146.332 51.557,146.331 51.271 C 146.330 50.984,146.454 50.218,146.606 49.567 C 147.079 47.542,146.323 46.866,143.767 47.029 C 142.366 47.118,142.169 47.313,141.999 48.773 C 141.844 50.099,141.289 52.460,141.010 52.982 C 140.904 53.179,140.863 53.414,140.919 53.503 C 140.974 53.593,140.946 53.667,140.856 53.667 C 140.767 53.667,140.640 53.910,140.574 54.208 C 140.509 54.506,140.320 55.050,140.155 55.417 C 139.990 55.783,139.692 56.533,139.493 57.083 C 138.450 59.967,136.722 62.805,136.145 62.584 C 135.077 62.174,135.388 53.577,136.701 47.226 C 137.047 45.552,136.352 45.000,133.896 45.000 C 132.980 45.000,132.381 45.200,132.816 45.361 C 132.899 45.392,132.848 45.527,132.702 45.661 C 132.467 45.878,132.449 45.873,132.546 45.620 C 132.618 45.432,132.575 45.333,132.419 45.333 C 132.077 45.333,131.826 46.392,132.013 47.044 C 132.200 47.697,132.200 47.707,132.032 47.603 C 131.958 47.558,131.806 48.055,131.694 48.709 C 131.576 49.394,131.245 50.378,130.912 51.032 C 130.295 52.243,130.237 52.412,130.500 52.250 C 130.592 52.193,130.667 52.234,130.667 52.341 C 130.667 52.448,130.561 52.495,130.432 52.446 C 130.303 52.396,130.067 52.501,129.906 52.678 C 129.746 52.855,129.661 53.000,129.717 53.000 C 129.772 53.000,129.653 53.177,129.451 53.393 C 129.249 53.609,128.892 54.020,128.658 54.308 C 127.782 55.381,126.512 56.168,125.678 56.154 C 125.259 56.146,125.010 56.103,125.125 56.056 C 125.640 55.848,124.924 55.000,124.233 55.000 C 123.196 55.000,122.769 57.057,123.634 57.885 C 123.891 58.132,124.220 58.333,124.364 58.333 C 125.545 58.333,126.422 67.839,125.602 71.750 C 125.065 74.308,124.041 74.991,123.211 73.345 C 123.006 72.938,122.768 72.562,122.681 72.509 C 122.595 72.456,122.530 72.300,122.538 72.164 C 122.600 71.099,122.479 70.333,122.250 70.333 C 121.959 70.333,121.917 70.071,122.183 69.907 C 122.296 69.837,122.326 69.532,122.263 69.105 C 121.991 67.267,122.048 63.536,122.495 54.034 C 122.653 50.669,122.684 50.448,123.088 49.784 C 123.322 49.399,123.605 48.933,123.715 48.750 C 123.825 48.567,124.085 48.178,124.291 47.886 C 124.498 47.594,124.667 47.238,124.667 47.094 C 124.667 46.951,124.728 46.833,124.802 46.833 C 124.877 46.833,125.065 46.568,125.219 46.244 C 125.543 45.565,125.565 45.440,125.333 45.583 C 125.242 45.640,125.167 45.604,125.167 45.503 C 125.167 45.401,125.294 45.341,125.450 45.368 C 125.739 45.418,126.160 44.765,127.085 42.833 C 127.326 42.329,127.644 41.692,127.791 41.417 C 127.938 41.142,128.109 40.804,128.170 40.667 C 128.678 39.521,129.002 38.805,129.308 38.148 C 129.505 37.726,129.667 37.270,129.667 37.135 C 129.667 37.000,129.854 36.521,130.083 36.070 C 130.311 35.619,130.499 35.116,130.499 34.953 C 130.500 34.790,130.608 34.396,130.741 34.079 C 131.105 33.207,131.351 31.083,131.229 29.849 C 131.020 27.727,129.147 26.699,127.250 27.667 C 126.890 27.850,126.538 28.000,126.467 28.000 C 126.114 28.000,123.834 30.266,123.833 30.617 C 123.833 30.727,123.731 30.877,123.606 30.950 C 123.481 31.023,123.255 31.308,123.104 31.583 C 122.953 31.858,122.759 32.196,122.674 32.333 C 122.532 32.563,121.931 33.855,121.268 35.359 C 121.121 35.693,121.000 36.050,121.000 36.152 C 121.000 36.254,120.925 36.487,120.833 36.669 C 120.742 36.851,120.592 37.149,120.500 37.331 C 120.408 37.513,120.332 37.832,120.330 38.039 C 120.328 38.247,120.181 38.736,120.003 39.127 C 119.826 39.518,119.636 40.118,119.582 40.461 C 119.527 40.803,119.366 41.479,119.224 41.963 C 119.007 42.704,119.002 42.885,119.191 43.119 C 119.386 43.357,119.379 43.382,119.147 43.295 C 118.886 43.197,118.762 43.686,118.610 45.417 C 118.594 45.600,118.521 45.844,118.447 45.958 C 118.374 46.073,118.360 46.242,118.417 46.333 C 118.473 46.425,118.452 46.500,118.368 46.500 C 118.285 46.500,118.171 47.202,118.114 48.060 C 117.991 49.937,117.551 51.364,116.261 54.068 C 115.519 55.623,115.361 56.086,115.532 56.208 C 115.698 56.328,115.688 56.345,115.488 56.282 C 115.200 56.192,115.026 56.431,113.931 58.417 C 113.829 58.600,113.485 59.147,113.165 59.633 L 112.583 60.515 112.529 59.983 C 112.500 59.690,112.558 58.547,112.659 57.442 C 112.759 56.337,112.889 53.814,112.946 51.836 C 113.063 47.811,112.993 47.414,112.181 47.533 C 111.922 47.572,111.629 47.498,111.502 47.362 C 111.277 47.121,109.471 47.159,108.803 47.418 C 108.448 47.556,108.168 48.351,108.163 49.233 C 108.158 50.029,108.012 50.671,107.495 52.167 C 107.289 52.762,106.992 53.625,106.835 54.083 C 106.553 54.908,106.349 55.490,105.973 56.542 C 105.866 56.840,105.604 57.479,105.390 57.963 C 105.175 58.447,104.999 58.897,104.998 58.963 C 104.996 59.084,104.383 60.302,103.650 61.642 C 101.921 64.802,101.082 62.147,101.760 55.667 C 101.900 54.337,102.084 52.575,102.170 51.750 C 102.256 50.925,102.437 49.650,102.571 48.917 C 103.041 46.348,103.036 46.215,102.442 45.792 C 101.698 45.261,98.821 45.227,98.442 45.745 C 98.106 46.202,97.766 48.347,97.898 49.172 C 97.970 49.623,97.949 49.822,97.837 49.752 C 97.743 49.694,97.667 49.765,97.667 49.909 C 97.667 50.053,97.594 50.301,97.504 50.461 C 97.415 50.620,97.228 51.012,97.088 51.333 C 96.792 52.014,96.183 53.047,96.006 53.167 C 95.939 53.212,95.794 53.419,95.686 53.625 C 95.577 53.831,95.386 54.000,95.262 54.000 C 95.137 54.000,94.996 54.104,94.947 54.232 C 94.861 54.454,93.934 55.000,93.641 55.000 C 93.563 55.000,93.500 54.846,93.500 54.657 C 93.500 54.468,93.425 54.360,93.333 54.417 C 93.242 54.473,93.167 54.446,93.167 54.357 C 93.167 54.268,93.260 54.163,93.375 54.125 C 93.649 54.034,93.649 51.223,93.375 50.731 C 93.115 50.263,92.285 49.934,91.720 50.076 C 91.355 50.168,91.314 50.222,91.509 50.361 C 91.705 50.499,91.695 50.514,91.458 50.438 C 89.999 49.968,89.635 54.153,91.007 55.621 C 91.526 56.177,91.571 56.765,91.168 57.750 C 91.056 58.025,90.785 58.737,90.565 59.333 C 90.346 59.929,90.091 60.442,90.000 60.472 C 89.908 60.503,89.833 60.661,89.833 60.824 C 89.833 60.987,89.509 61.468,89.113 61.894 C 87.939 63.155,86.510 62.808,86.122 61.167 C 86.068 60.938,85.945 60.450,85.849 60.083 C 85.186 57.547,86.207 50.241,87.540 47.978 C 88.675 46.051,90.167 46.406,90.167 48.603 C 90.167 49.405,90.395 49.667,91.096 49.667 C 93.255 49.667,91.940 45.420,89.750 45.319 C 86.851 45.185,85.500 45.577,84.083 46.962 C 83.073 47.951,82.113 49.701,81.549 51.583 C 81.187 52.795,81.106 58.984,81.443 59.683 C 81.730 60.277,81.890 60.718,81.922 61.008 C 81.953 61.286,82.592 62.504,83.000 63.064 C 83.504 63.756,84.496 64.559,85.115 64.774 C 86.072 65.107,88.253 65.029,87.690 64.681 C 87.596 64.623,87.796 64.575,88.135 64.573 C 88.806 64.570,89.720 63.894,89.613 63.479 C 89.581 63.353,89.586 63.307,89.625 63.376 C 89.744 63.590,89.991 63.336,89.898 63.095 C 89.850 62.970,89.890 62.818,89.987 62.758 C 90.094 62.692,90.124 62.751,90.064 62.908 C 90.009 63.050,90.029 63.167,90.107 63.166 C 90.403 63.166,91.901 60.496,92.091 59.632 C 92.148 59.374,92.303 58.944,92.437 58.676 C 92.571 58.408,92.735 57.866,92.803 57.472 C 92.906 56.867,93.002 56.732,93.421 56.605 C 93.694 56.523,94.067 56.395,94.250 56.322 C 94.433 56.248,94.733 56.145,94.917 56.094 C 95.302 55.986,96.858 54.576,97.135 54.083 C 97.300 53.792,97.324 53.832,97.328 54.405 C 97.353 57.565,97.499 59.934,97.736 60.979 C 98.101 62.596,98.750 63.893,98.601 62.708 C 98.569 62.456,98.579 62.359,98.624 62.493 C 98.668 62.627,98.826 62.927,98.974 63.160 C 99.224 63.552,99.224 63.567,98.970 63.367 C 98.820 63.248,98.656 63.215,98.608 63.294 C 98.501 63.466,99.537 64.667,99.793 64.667 C 99.891 64.667,100.002 64.755,100.037 64.862 C 100.150 65.201,102.035 65.242,102.682 64.920 C 103.783 64.371,105.537 62.130,105.240 61.650 C 105.190 61.569,105.231 61.371,105.332 61.210 C 105.491 60.956,105.502 60.967,105.413 61.292 C 105.222 61.992,105.583 61.671,105.977 60.792 C 106.192 60.310,106.548 59.528,106.768 59.052 C 106.987 58.576,107.167 58.067,107.167 57.919 C 107.167 57.772,107.354 57.299,107.583 56.869 L 108.000 56.086 107.999 57.251 C 107.998 57.892,107.922 59.651,107.830 61.161 L 107.663 63.905 106.019 65.494 C 104.457 67.003,102.917 68.753,102.917 69.018 C 102.917 69.085,102.751 69.330,102.549 69.563 C 102.111 70.067,100.667 72.578,100.667 72.836 C 100.667 72.935,100.550 73.242,100.407 73.518 C 98.886 76.460,99.389 79.750,101.448 80.322 C 104.356 81.129,107.581 79.122,109.195 75.500 C 109.338 75.179,109.574 74.654,109.720 74.333 C 109.865 74.012,110.068 73.421,110.171 73.020 C 110.274 72.618,110.423 72.168,110.503 72.020 C 110.814 71.444,111.660 67.341,111.704 66.203 C 111.729 65.543,111.802 65.002,111.865 65.002 C 111.928 65.001,112.031 64.657,112.094 64.238 C 112.157 63.817,112.385 63.266,112.604 63.006 C 112.822 62.747,113.000 62.466,113.000 62.381 C 113.000 62.296,113.188 62.064,113.417 61.864 C 113.646 61.665,113.833 61.401,113.833 61.277 C 113.833 61.153,113.983 60.916,114.167 60.750 C 114.350 60.584,114.500 60.392,114.500 60.323 C 114.500 60.254,114.837 59.684,115.250 59.057 C 115.662 58.430,116.001 57.842,116.003 57.750 C 116.006 57.658,116.154 57.396,116.333 57.167 C 116.513 56.938,116.661 56.660,116.663 56.549 C 116.665 56.439,116.840 56.092,117.053 55.780 L 117.438 55.211 117.439 59.730 C 117.439 64.184,117.783 67.820,118.181 67.574 C 118.254 67.529,118.273 67.741,118.224 68.045 C 118.130 68.622,118.764 70.988,119.353 72.261 C 119.526 72.634,119.667 73.027,119.667 73.136 C 119.667 73.245,119.737 73.333,119.822 73.333 C 119.908 73.333,120.020 73.465,120.071 73.625 C 120.185 73.977,121.041 75.000,121.223 75.000 C 121.295 75.000,121.307 74.925,121.250 74.833 C 121.193 74.742,121.231 74.667,121.335 74.667 C 121.443 74.667,121.480 74.800,121.423 74.979 C 121.269 75.464,122.637 76.053,123.917 76.053 C 125.478 76.053,127.011 74.779,126.758 73.690 C 126.696 73.419,126.712 73.333,126.800 73.464 C 127.217 74.086,127.832 70.866,127.833 68.059 C 127.834 65.751,127.280 61.079,127.024 61.234 C 126.965 61.269,126.898 60.924,126.875 60.466 C 126.852 60.007,126.684 59.293,126.500 58.878 C 126.317 58.464,126.167 58.108,126.167 58.087 C 126.167 58.067,126.485 57.909,126.875 57.737 C 127.265 57.564,127.682 57.327,127.804 57.211 C 127.925 57.095,128.083 57.000,128.156 57.000 C 128.352 57.000,130.007 55.352,130.583 54.583 L 131.083 53.917 131.199 56.500 C 131.262 57.921,131.434 59.571,131.580 60.167 C 131.726 60.762,131.867 61.362,131.893 61.500 C 132.361 63.947,135.440 65.649,137.016 64.332 C 137.816 63.664,138.333 63.170,138.333 63.075 C 138.333 63.021,138.521 62.732,138.750 62.431 C 138.979 62.131,139.167 61.823,139.167 61.747 C 139.167 61.672,139.269 61.491,139.395 61.346 C 139.521 61.202,139.831 60.596,140.084 60.000 C 140.338 59.404,140.685 58.617,140.856 58.250 L 141.166 57.583 141.169 58.667 C 141.176 61.113,141.754 64.437,142.208 64.639 C 142.277 64.669,142.333 64.792,142.333 64.910 C 142.333 65.251,142.781 65.563,142.890 65.299 C 142.939 65.180,142.965 65.266,142.948 65.489 C 142.873 66.465,145.037 67.088,146.252 66.441 C 146.999 66.044,147.704 65.333,147.353 65.333 C 147.261 65.333,147.140 65.408,147.083 65.500 C 147.027 65.592,146.891 65.664,146.782 65.661 C 146.673 65.658,146.729 65.546,146.908 65.411 C 147.086 65.276,147.368 65.208,147.533 65.260 C 147.756 65.331,147.833 65.267,147.833 65.011 C 147.833 64.822,147.906 64.667,147.996 64.667 C 148.463 64.667,148.693 63.658,148.300 63.331 C 148.089 63.155,147.978 63.009,148.054 63.006 C 148.129 63.002,148.304 63.113,148.442 63.252 C 148.580 63.390,148.762 63.461,148.846 63.409 C 149.100 63.252,150.667 59.756,150.667 59.347 C 150.667 59.193,150.732 58.995,150.811 58.908 C 150.891 58.821,151.086 58.375,151.246 57.917 C 151.405 57.458,151.597 56.933,151.672 56.750 C 151.747 56.567,151.842 56.304,151.882 56.167 C 151.923 56.029,151.998 56.329,152.051 56.833 C 152.506 61.221,153.032 63.230,154.210 65.074 C 155.196 66.618,156.990 67.215,158.365 66.458 C 159.096 66.057,160.167 65.166,160.167 64.961 C 160.167 64.892,160.392 64.621,160.667 64.358 C 160.942 64.096,161.167 63.799,161.167 63.699 C 161.167 63.598,161.263 63.457,161.381 63.383 C 161.500 63.310,161.958 62.538,162.400 61.667 C 162.842 60.796,163.353 59.837,163.536 59.535 C 163.719 59.233,163.830 58.840,163.783 58.660 C 163.736 58.480,163.761 58.372,163.839 58.420 C 163.977 58.506,164.092 58.286,164.795 56.583 C 165.310 55.338,165.626 54.483,166.505 51.957 L 167.302 49.664 166.947 49.415 C 166.185 48.881,165.935 49.172,165.084 51.583 C 164.922 52.042,164.724 52.488,164.645 52.575 C 164.565 52.662,164.500 52.869,164.500 53.034 C 164.500 53.199,164.350 53.614,164.167 53.956 C 163.983 54.299,163.833 54.679,163.833 54.801 C 163.833 54.924,163.639 55.356,163.401 55.762 C 163.010 56.429,163.004 56.576,163.369 56.522 C 163.434 56.512,163.443 56.622,163.387 56.766 C 163.314 56.959,163.254 56.974,163.162 56.826 C 163.084 56.700,162.833 57.054,162.493 57.770 C 162.194 58.401,161.886 58.942,161.808 58.972 C 161.730 59.003,161.667 59.209,161.667 59.431 C 161.667 59.652,161.600 59.833,161.519 59.833 C 161.438 59.833,161.241 60.108,161.082 60.443 C 160.748 61.146,160.030 62.299,159.667 62.714 C 158.054 64.555,157.459 64.545,157.053 62.667 C 156.944 62.163,156.850 61.471,156.844 61.130 C 156.837 60.722,156.762 60.528,156.625 60.561 C 156.510 60.589,156.477 60.579,156.552 60.539 C 156.626 60.499,156.635 59.325,156.571 57.932 C 156.461 55.525,156.624 52.164,157.006 48.958 C 157.137 47.857,157.266 47.501,157.884 46.542 C 159.111 44.635,159.184 44.496,159.065 44.303 C 158.996 44.193,159.023 44.161,159.129 44.227 C 159.229 44.288,159.357 44.263,159.415 44.169 C 159.473 44.076,159.440 44.000,159.343 44.000 C 159.246 44.000,159.167 43.927,159.167 43.839 C 159.167 43.750,159.272 43.718,159.402 43.767 C 159.543 43.821,159.680 43.720,159.746 43.512 C 159.806 43.322,159.926 43.167,160.011 43.167 C 160.097 43.167,160.167 43.032,160.167 42.867 C 160.167 42.702,160.235 42.495,160.319 42.408 C 160.650 42.063,161.979 39.500,163.337 36.583 C 166.473 29.851,166.849 25.221,164.318 24.496 C 163.711 24.322,163.653 24.321,162.478 24.486 M36.875 24.618 C 36.669 24.657,36.331 24.657,36.125 24.618 C 35.919 24.578,36.087 24.545,36.500 24.545 C 36.912 24.545,37.081 24.578,36.875 24.618 M204.877 24.784 C 204.672 24.824,204.297 24.825,204.044 24.786 C 203.791 24.748,203.958 24.716,204.417 24.714 C 204.875 24.713,205.082 24.744,204.877 24.784 M40.500 25.519 C 42.728 26.236,44.549 27.830,45.430 29.833 C 45.491 29.971,45.674 30.383,45.837 30.750 C 46.195 31.556,46.523 32.574,46.487 32.772 C 46.422 33.131,46.512 33.679,46.625 33.611 C 46.839 33.482,46.852 35.497,46.650 37.500 C 46.426 39.712,45.976 41.091,44.661 43.592 C 43.241 46.293,42.799 46.987,41.937 47.867 C 41.605 48.206,41.333 48.600,41.333 48.742 C 41.333 48.884,41.192 49.000,41.018 49.000 C 40.844 49.000,40.664 49.101,40.616 49.225 C 40.425 49.722,36.209 52.315,35.571 52.327 C 35.155 52.335,34.096 51.363,32.673 49.667 C 31.251 47.972,31.340 48.053,31.183 48.307 C 31.075 48.482,31.025 48.472,30.942 48.255 C 30.881 48.096,30.906 48.025,31.002 48.085 C 31.334 48.290,31.154 47.779,30.708 47.254 C 29.852 46.246,29.667 45.996,29.667 45.855 C 29.667 45.777,29.367 45.167,29.000 44.500 C 28.633 43.833,28.333 43.225,28.333 43.148 C 28.333 43.072,28.154 42.613,27.936 42.130 C 27.717 41.646,27.407 40.800,27.246 40.250 C 27.085 39.700,26.927 39.201,26.894 39.142 C 26.861 39.082,26.799 38.172,26.756 37.118 C 26.689 35.482,26.736 34.675,27.041 32.250 C 27.064 32.067,27.177 31.818,27.292 31.696 C 27.406 31.575,27.500 31.357,27.500 31.211 C 27.500 31.065,27.694 30.616,27.930 30.212 C 28.167 29.808,28.318 29.366,28.265 29.230 C 28.213 29.094,28.227 29.017,28.295 29.060 C 28.492 29.182,28.940 28.786,29.070 28.374 C 29.136 28.168,29.297 28.000,29.428 28.000 C 29.559 28.000,29.667 27.890,29.667 27.756 C 29.667 27.622,29.835 27.423,30.042 27.314 C 30.248 27.206,30.454 27.069,30.500 27.011 C 30.672 26.794,32.287 25.833,32.481 25.833 C 32.592 25.833,32.923 25.705,33.217 25.549 C 34.541 24.842,38.349 24.826,40.500 25.519 M18.226 25.782 C 17.766 26.884,17.735 27.500,18.139 27.500 C 18.578 27.500,18.763 27.150,18.913 26.042 C 19.061 24.950,18.640 24.791,18.226 25.782 M77.299 25.507 C 76.574 25.890,75.655 27.035,75.223 28.093 C 74.876 28.943,74.263 29.221,72.288 29.425 C 71.717 29.484,70.618 29.680,69.846 29.861 C 69.074 30.042,68.234 30.216,67.980 30.248 C 67.360 30.327,65.008 31.137,64.548 31.431 C 64.345 31.561,64.082 31.668,63.964 31.670 C 63.846 31.672,63.563 31.821,63.333 32.000 C 63.104 32.179,62.785 32.328,62.625 32.330 C 62.465 32.332,62.333 32.390,62.332 32.458 C 62.332 32.527,62.071 32.761,61.752 32.977 C 58.143 35.435,56.199 39.079,56.183 43.419 C 56.172 46.485,57.879 50.622,59.349 51.088 C 59.524 51.144,59.667 51.262,59.667 51.352 C 59.667 51.441,60.135 51.736,60.708 52.007 C 63.981 53.555,69.324 51.798,68.309 49.506 C 67.981 48.765,67.280 48.820,65.779 49.704 C 64.267 50.594,61.500 50.665,61.500 49.813 C 61.500 49.733,61.415 49.667,61.311 49.667 C 61.025 49.667,60.085 48.597,59.266 47.340 C 58.782 46.596,58.673 46.285,58.239 44.417 C 57.830 42.655,58.239 39.874,59.115 38.462 C 59.327 38.120,59.500 37.771,59.500 37.686 C 59.500 37.454,62.364 34.500,62.588 34.500 C 62.694 34.500,62.917 34.350,63.083 34.167 C 63.249 33.983,63.494 33.833,63.627 33.833 C 63.777 33.833,63.831 33.735,63.770 33.575 C 63.710 33.419,63.740 33.359,63.845 33.424 C 64.112 33.589,66.760 32.482,66.564 32.287 C 66.511 32.233,66.622 32.230,66.811 32.279 C 67.000 32.329,67.664 32.219,68.286 32.034 C 68.908 31.850,69.867 31.648,70.417 31.585 C 70.967 31.522,71.867 31.366,72.417 31.238 C 73.998 30.869,74.691 30.913,74.594 31.375 C 74.418 32.212,74.127 37.539,74.220 38.218 C 74.275 38.619,74.254 39.015,74.175 39.098 C 74.095 39.182,73.947 41.762,73.846 44.833 C 73.745 47.904,73.576 51.054,73.472 51.833 C 73.367 52.612,73.274 53.936,73.266 54.775 C 73.257 55.614,73.194 56.265,73.125 56.223 C 73.056 56.181,73.000 56.208,72.999 56.282 C 72.999 56.356,72.922 56.867,72.829 57.417 C 72.735 57.967,72.586 58.973,72.497 59.653 C 72.337 60.868,72.172 61.499,71.180 64.667 C 70.533 66.736,70.319 67.299,69.915 68.001 C 69.730 68.321,69.430 68.872,69.248 69.224 C 69.066 69.577,68.748 70.050,68.542 70.275 C 68.335 70.500,68.167 70.730,68.167 70.786 C 68.167 71.028,66.393 72.517,65.887 72.700 C 65.583 72.810,65.333 72.952,65.333 73.015 C 65.333 73.134,64.670 73.365,64.083 73.450 C 62.655 73.657,61.162 73.735,61.118 73.605 C 61.090 73.520,60.883 73.443,60.659 73.434 C 60.048 73.408,58.836 72.613,58.083 71.743 C 56.006 69.345,56.628 65.911,59.417 64.385 C 59.783 64.185,60.065 63.941,60.042 63.844 C 59.985 63.602,60.289 63.618,60.370 63.861 C 60.420 64.009,60.570 64.008,60.997 63.859 C 61.306 63.752,62.076 63.616,62.707 63.557 C 63.472 63.486,63.782 63.399,63.636 63.298 C 63.496 63.202,63.618 63.186,63.970 63.256 C 65.107 63.480,65.594 62.268,64.661 61.532 C 62.743 60.018,57.891 61.544,56.551 64.083 C 56.406 64.358,56.223 64.625,56.144 64.676 C 55.353 65.190,54.935 69.581,55.563 70.794 C 55.712 71.081,55.833 71.430,55.833 71.568 C 55.833 72.166,57.163 73.722,57.548 73.574 C 57.675 73.525,57.882 73.619,58.007 73.784 C 58.201 74.040,58.200 74.053,58.000 73.875 C 57.729 73.633,57.500 73.604,57.500 73.811 C 57.500 74.171,58.879 74.866,59.396 74.767 C 59.741 74.701,59.837 74.719,59.680 74.819 C 59.246 75.098,60.812 75.418,62.500 75.395 C 64.674 75.366,67.951 74.477,68.959 73.643 C 69.119 73.511,69.459 73.298,69.714 73.170 C 71.800 72.126,75.361 67.029,76.179 63.917 C 76.252 63.642,76.426 63.079,76.566 62.667 C 77.031 61.301,77.500 59.579,77.500 59.237 C 77.500 59.052,77.656 58.192,77.847 57.326 C 78.687 53.514,78.998 48.391,78.999 38.375 C 79.000 31.210,79.042 29.500,79.216 29.500 C 79.335 29.500,79.748 29.197,80.133 28.827 C 82.023 27.011,79.671 24.255,77.299 25.507 M377.236 25.768 C 377.883 26.016,377.504 28.905,376.466 31.629 C 376.247 32.206,376.162 32.722,376.220 33.129 C 376.269 33.471,376.272 33.619,376.226 33.458 C 376.180 33.298,376.091 33.167,376.029 33.167 C 375.831 33.168,375.295 34.660,375.398 34.927 C 375.452 35.068,375.433 35.145,375.355 35.097 C 375.151 34.971,374.605 36.264,374.727 36.583 C 374.783 36.730,374.766 36.812,374.689 36.764 C 374.552 36.679,374.066 37.577,373.343 39.250 C 373.145 39.708,372.687 40.664,372.325 41.375 C 371.963 42.085,371.667 42.740,371.667 42.829 C 371.667 42.919,371.510 43.238,371.318 43.538 L 370.969 44.083 371.083 43.583 C 371.199 43.068,371.392 41.990,371.679 40.250 C 371.769 39.700,371.995 38.575,372.181 37.750 C 373.236 33.062,373.563 31.809,374.308 29.619 C 374.693 28.486,374.717 28.298,374.499 28.145 C 374.291 27.998,374.299 27.984,374.546 28.064 C 374.768 28.136,374.913 28.005,375.126 27.538 C 375.749 26.172,376.547 25.503,377.236 25.768 M205.319 26.506 C 205.702 27.036,205.820 27.116,205.870 26.881 C 205.905 26.717,205.910 27.446,205.882 28.500 C 205.823 30.701,205.571 32.879,205.237 34.083 C 205.110 34.542,204.986 35.340,204.962 35.858 C 204.937 36.375,204.870 36.770,204.812 36.736 C 204.755 36.701,204.633 36.990,204.540 37.378 C 204.448 37.766,204.248 38.571,204.095 39.167 C 203.942 39.762,203.752 40.587,203.672 41.000 C 203.315 42.846,202.841 42.564,202.832 40.500 C 202.828 39.510,202.680 39.000,202.397 39.000 C 202.119 39.000,202.099 38.801,202.352 38.548 C 202.487 38.413,202.486 37.902,202.348 36.640 C 202.128 34.636,202.025 29.161,202.208 29.275 C 202.277 29.318,202.333 29.142,202.333 28.885 C 202.328 26.522,204.232 25.006,205.319 26.506 M164.144 26.514 C 164.450 26.842,164.735 28.228,164.461 28.059 C 164.391 28.016,164.333 28.121,164.333 28.294 C 164.333 28.466,164.230 28.939,164.103 29.345 C 163.976 29.751,163.772 30.421,163.650 30.833 C 163.528 31.246,163.332 31.771,163.215 32.000 C 163.098 32.229,163.002 32.511,163.001 32.627 C 163.000 32.743,162.931 32.968,162.847 33.127 C 162.606 33.585,162.167 34.624,162.167 34.737 C 162.167 34.794,161.858 35.495,161.482 36.295 C 161.105 37.095,160.645 38.087,160.460 38.500 C 160.275 38.912,159.636 40.249,159.040 41.471 C 158.097 43.405,157.982 43.744,158.142 44.096 C 158.256 44.345,158.264 44.500,158.163 44.500 C 158.073 44.500,158.000 44.383,158.000 44.240 C 158.000 44.084,157.922 44.029,157.805 44.101 C 157.674 44.182,157.645 44.130,157.717 43.942 C 157.776 43.788,157.902 43.045,157.997 42.290 C 158.092 41.534,158.282 40.548,158.418 40.099 C 158.555 39.649,158.667 39.048,158.667 38.763 C 158.667 38.479,158.854 37.655,159.083 36.933 C 159.313 36.211,159.500 35.467,159.500 35.280 C 159.500 34.916,159.781 33.936,160.020 33.461 C 160.101 33.301,160.166 33.039,160.165 32.877 C 160.162 32.346,161.343 29.047,161.851 28.167 C 161.931 28.029,162.118 27.692,162.267 27.417 C 162.879 26.287,163.607 25.937,164.144 26.514 M32.746 27.317 C 31.738 27.980,31.353 28.352,30.402 29.583 C 29.450 30.817,29.008 32.167,29.558 32.167 C 29.850 32.167,30.214 31.742,30.630 30.917 C 30.815 30.550,31.161 30.040,31.400 29.783 C 31.638 29.526,31.833 29.245,31.833 29.158 C 31.833 29.071,31.900 29.000,31.983 29.000 C 32.065 29.000,32.308 28.810,32.524 28.577 C 33.048 28.013,34.485 27.333,35.153 27.333 C 35.576 27.333,35.679 27.271,35.636 27.042 C 35.515 26.409,33.892 26.564,32.746 27.317 M260.093 28.054 C 260.770 28.060,259.785 32.955,258.477 36.083 C 257.834 37.622,257.268 39.033,257.056 39.625 C 256.916 40.014,256.734 40.375,256.651 40.426 C 256.568 40.478,256.500 40.684,256.499 40.885 C 256.498 41.086,256.355 41.466,256.181 41.731 L 255.864 42.212 255.807 41.093 C 255.776 40.478,255.804 39.831,255.869 39.655 C 255.935 39.479,256.010 38.773,256.036 38.085 C 256.062 37.398,256.134 36.836,256.195 36.835 C 256.257 36.834,256.351 36.327,256.404 35.708 C 256.546 34.072,257.331 30.515,257.690 29.874 C 257.861 29.571,258.000 29.244,258.000 29.146 C 258.000 28.558,259.018 27.793,259.583 27.956 C 259.767 28.009,259.996 28.053,260.093 28.054 M312.986 28.000 C 313.405 28.000,313.240 31.186,312.753 32.496 C 312.569 32.991,312.536 33.262,312.655 33.302 C 312.753 33.334,312.833 33.428,312.833 33.509 C 312.833 33.590,312.721 33.613,312.583 33.560 C 312.431 33.502,312.333 33.560,312.333 33.710 C 312.333 33.963,311.941 35.022,311.220 36.714 C 310.938 37.375,310.839 37.847,310.904 38.214 C 310.971 38.591,310.957 38.651,310.858 38.418 C 310.706 38.058,310.389 38.499,310.080 39.500 C 310.010 39.729,309.657 40.517,309.296 41.250 L 308.641 42.583 308.751 41.417 C 309.067 38.088,309.507 34.676,309.783 33.417 C 309.923 32.775,310.096 31.950,310.167 31.583 C 310.591 29.405,311.780 27.645,312.639 27.927 C 312.761 27.967,312.917 28.000,312.986 28.000 M15.951 29.706 C 15.911 29.914,15.877 29.783,15.875 29.417 C 15.874 29.050,15.906 28.880,15.948 29.040 C 15.990 29.199,15.991 29.499,15.951 29.706 M129.538 29.458 C 129.689 29.629,129.825 30.183,129.867 30.793 C 129.906 31.367,129.888 31.756,129.827 31.657 C 129.766 31.558,129.619 31.839,129.500 32.280 C 129.381 32.722,129.220 33.155,129.142 33.242 C 129.064 33.329,129.000 33.562,129.000 33.761 C 129.000 34.202,128.395 35.786,127.159 38.583 C 126.997 38.950,126.703 39.625,126.506 40.083 C 126.310 40.542,125.965 41.265,125.741 41.691 C 125.517 42.117,125.333 42.552,125.333 42.656 C 125.333 42.761,125.173 43.063,124.977 43.328 C 124.766 43.614,124.658 43.947,124.710 44.149 C 124.763 44.352,124.723 44.474,124.610 44.453 C 124.506 44.433,124.158 44.942,123.836 45.583 C 122.885 47.477,123.122 44.811,124.273 40.667 C 124.490 39.887,124.667 39.093,124.667 38.901 C 124.667 38.709,124.817 38.116,125.000 37.583 C 125.183 37.050,125.333 36.416,125.333 36.174 C 125.333 35.932,125.398 35.662,125.477 35.575 C 125.556 35.488,125.752 35.004,125.914 34.500 C 127.220 30.427,128.645 28.444,129.538 29.458 M123.795 31.500 C 123.680 31.683,123.529 31.833,123.458 31.833 C 123.388 31.833,123.424 31.683,123.539 31.500 C 123.653 31.317,123.804 31.167,123.875 31.167 C 123.945 31.167,123.909 31.317,123.795 31.500 M64.500 31.807 C 64.500 31.963,63.761 32.333,63.450 32.333 C 63.297 32.333,63.804 32.008,64.458 31.687 C 64.481 31.676,64.500 31.730,64.500 31.807 M16.556 33.011 C 16.444 33.122,16.389 32.998,16.389 32.637 C 16.389 32.139,16.402 32.126,16.556 32.470 C 16.667 32.720,16.667 32.900,16.556 33.011 M28.531 33.713 C 28.258 34.042,28.309 35.833,28.591 35.833 C 28.940 35.833,29.051 35.513,28.806 35.211 C 28.657 35.027,28.651 34.977,28.787 35.058 C 28.918 35.137,29.026 35.036,29.092 34.774 C 29.312 33.898,28.948 33.210,28.531 33.713 M201.618 34.373 C 201.578 34.580,201.544 34.450,201.542 34.083 C 201.540 33.717,201.573 33.547,201.615 33.706 C 201.656 33.866,201.658 34.166,201.618 34.373 M162.113 36.007 C 162.008 36.286,161.897 36.440,161.867 36.350 C 161.813 36.189,162.117 35.500,162.241 35.500 C 162.276 35.500,162.218 35.728,162.113 36.007 M47.282 36.625 C 47.240 36.785,47.205 36.654,47.205 36.333 C 47.205 36.012,47.240 35.881,47.282 36.042 C 47.323 36.202,47.323 36.465,47.282 36.625 M58.659 37.536 L 58.295 37.917 58.591 37.333 C 58.754 37.012,58.918 36.841,58.955 36.952 C 58.993 37.064,58.860 37.326,58.659 37.536 M304.282 45.292 C 304.240 45.452,304.205 45.321,304.205 45.000 C 304.205 44.679,304.240 44.548,304.282 44.708 C 304.323 44.869,304.323 45.131,304.282 45.292 M280.178 45.339 C 280.643 45.588,280.636 47.567,280.167 48.539 C 279.983 48.919,279.833 49.299,279.833 49.384 C 279.833 49.908,277.710 51.724,276.886 51.905 L 276.363 52.020 276.623 50.968 C 276.767 50.390,277.023 49.599,277.192 49.210 C 277.361 48.822,277.500 48.389,277.500 48.249 C 277.500 48.109,277.736 47.576,278.025 47.064 C 278.457 46.300,278.509 46.106,278.317 45.977 C 278.121 45.845,278.124 45.824,278.333 45.846 C 278.820 45.898,279.000 45.831,279.000 45.596 C 279.000 45.389,279.235 45.255,279.719 45.186 C 279.794 45.175,280.000 45.244,280.178 45.339 M26.167 47.198 C 26.167 47.272,26.073 47.334,25.958 47.336 C 25.817 47.338,25.831 47.395,26.000 47.513 C 26.203 47.656,26.188 47.672,25.917 47.602 C 25.733 47.555,25.377 47.467,25.125 47.407 C 24.590 47.279,24.567 47.190,24.949 46.720 L 25.232 46.371 25.699 46.717 C 25.956 46.907,26.167 47.124,26.167 47.198 M330.582 46.834 C 330.416 47.018,330.247 47.136,330.206 47.095 C 330.109 46.998,330.542 46.514,330.734 46.506 C 330.817 46.503,330.749 46.650,330.582 46.834 M214.451 49.042 C 214.411 49.248,214.379 49.079,214.379 48.667 C 214.379 48.254,214.411 48.085,214.451 48.292 C 214.491 48.498,214.491 48.835,214.451 49.042 M251.282 49.625 C 251.240 49.785,251.205 49.654,251.205 49.333 C 251.205 49.012,251.240 48.881,251.282 49.042 C 251.323 49.202,251.323 49.465,251.282 49.625 M118.002 51.174 L 117.824 51.583 117.910 51.167 C 117.957 50.938,118.007 50.600,118.020 50.417 C 118.045 50.092,118.047 50.092,118.113 50.424 C 118.150 50.612,118.101 50.950,118.002 51.174 M265.451 51.706 C 265.411 51.914,265.377 51.783,265.375 51.417 C 265.374 51.050,265.406 50.880,265.448 51.040 C 265.490 51.199,265.491 51.499,265.451 51.706 M223.448 52.792 C 223.406 52.952,223.372 52.821,223.372 52.500 C 223.372 52.179,223.406 52.048,223.448 52.208 C 223.490 52.369,223.490 52.631,223.448 52.792 M101.615 54.292 C 101.573 54.452,101.539 54.321,101.539 54.000 C 101.539 53.679,101.573 53.548,101.615 53.708 C 101.657 53.869,101.657 54.131,101.615 54.292 M36.064 54.092 C 36.121 54.240,36.093 54.307,35.998 54.249 C 35.907 54.193,35.833 54.222,35.833 54.314 C 35.833 54.405,35.908 54.527,36.000 54.583 C 36.366 54.810,36.186 55.500,35.760 55.500 C 35.536 55.500,35.323 55.444,35.287 55.375 C 35.181 55.173,35.583 53.972,35.714 54.103 C 35.780 54.169,35.833 54.135,35.833 54.028 C 35.833 53.755,35.946 53.786,36.064 54.092 M237.888 54.214 C 237.839 54.292,237.704 54.319,237.587 54.274 C 237.470 54.229,237.275 54.281,237.153 54.388 C 236.975 54.546,236.969 54.535,237.124 54.327 C 237.320 54.065,238.046 53.957,237.888 54.214 M243.451 55.040 C 243.411 55.247,243.377 55.117,243.375 54.750 C 243.374 54.383,243.406 54.214,243.448 54.373 C 243.490 54.532,243.491 54.832,243.451 55.040 M203.833 55.115 C 203.833 55.487,203.707 55.357,203.519 54.792 C 203.353 54.296,203.359 54.278,203.586 54.574 C 203.722 54.751,203.833 54.995,203.833 55.115 M129.833 55.159 C 129.833 55.235,129.729 55.338,129.602 55.386 C 129.440 55.448,129.396 55.379,129.454 55.156 C 129.533 54.856,129.833 54.858,129.833 55.159 M150.997 55.708 C 150.999 55.777,150.925 55.833,150.833 55.833 C 150.742 55.833,150.668 55.665,150.669 55.458 C 150.672 55.101,150.990 55.343,150.997 55.708 M112.448 56.958 C 112.406 57.119,112.372 56.987,112.372 56.667 C 112.372 56.346,112.406 56.215,112.448 56.375 C 112.490 56.535,112.490 56.798,112.448 56.958 M183.448 57.292 C 183.406 57.452,183.372 57.321,183.372 57.000 C 183.372 56.679,183.406 56.548,183.448 56.708 C 183.490 56.869,183.490 57.131,183.448 57.292 M35.825 58.575 C 35.725 58.675,35.674 58.370,35.686 57.742 L 35.706 56.750 35.845 57.583 C 35.929 58.087,35.921 58.479,35.825 58.575 M25.451 58.206 C 25.411 58.414,25.377 58.283,25.375 57.917 C 25.374 57.550,25.406 57.380,25.448 57.540 C 25.490 57.699,25.491 57.999,25.451 58.206 M115.167 58.750 C 115.049 58.892,114.915 58.971,114.869 58.925 C 114.823 58.879,114.882 58.725,115.000 58.583 C 115.118 58.441,115.252 58.363,115.298 58.409 C 115.343 58.454,115.284 58.608,115.167 58.750 M233.500 58.583 C 233.500 58.721,233.425 58.833,233.333 58.833 C 233.242 58.833,233.167 58.721,233.167 58.583 C 233.167 58.446,233.242 58.333,233.333 58.333 C 233.425 58.333,233.500 58.446,233.500 58.583 M333.592 59.183 C 333.457 59.495,333.343 59.660,333.340 59.550 C 333.332 59.303,333.698 58.476,333.780 58.557 C 333.812 58.590,333.728 58.871,333.592 59.183 M363.833 59.480 C 363.833 59.560,363.727 59.714,363.596 59.822 C 363.402 59.984,363.376 59.958,363.449 59.676 C 363.537 59.341,363.833 59.189,363.833 59.480 M284.000 60.250 C 284.000 60.541,283.912 60.663,283.708 60.654 C 283.534 60.646,283.501 60.607,283.625 60.556 C 283.740 60.510,283.833 60.328,283.833 60.153 C 283.833 59.977,283.871 59.833,283.917 59.833 C 283.962 59.833,284.000 60.021,284.000 60.250 M82.480 61.500 C 82.477 61.637,82.374 61.487,82.250 61.167 C 81.957 60.406,81.961 60.106,82.256 60.750 C 82.382 61.025,82.483 61.362,82.480 61.500 M61.500 61.333 C 61.362 61.422,61.137 61.495,61.000 61.495 C 60.778 61.495,60.778 61.477,61.000 61.333 C 61.137 61.244,61.362 61.172,61.500 61.172 C 61.722 61.172,61.722 61.190,61.500 61.333 M149.275 61.892 C 149.293 62.106,149.281 62.112,149.221 61.920 C 149.115 61.579,148.833 61.597,148.833 61.944 C 148.833 62.097,148.787 62.175,148.729 62.118 C 148.672 62.061,148.672 61.892,148.729 61.743 C 148.859 61.407,149.241 61.511,149.275 61.892 M368.500 63.518 C 368.500 63.803,368.356 63.662,368.097 63.125 L 367.837 62.583 368.168 62.977 C 368.351 63.193,368.500 63.437,368.500 63.518 M57.833 63.290 C 57.696 63.344,57.492 63.506,57.380 63.652 C 57.269 63.798,57.175 63.838,57.172 63.742 C 57.164 63.481,57.531 63.165,57.825 63.180 C 58.049 63.191,58.051 63.206,57.833 63.290 M24.786 64.625 C 24.748 64.877,24.717 64.671,24.717 64.167 C 24.717 63.663,24.748 63.456,24.786 63.708 C 24.824 63.960,24.824 64.373,24.786 64.625 M62.125 63.448 C 61.965 63.490,61.702 63.490,61.542 63.448 C 61.381 63.406,61.512 63.372,61.833 63.372 C 62.154 63.372,62.285 63.406,62.125 63.448 M126.285 64.706 C 126.245 64.914,126.211 64.783,126.209 64.417 C 126.207 64.050,126.239 63.880,126.281 64.040 C 126.323 64.199,126.324 64.499,126.285 64.706 M275.833 64.083 C 275.977 64.256,275.983 64.333,275.854 64.333 C 275.751 64.333,275.667 64.264,275.667 64.179 C 275.667 64.094,275.535 63.990,275.375 63.948 C 275.129 63.884,275.126 63.869,275.355 63.853 C 275.504 63.842,275.719 63.946,275.833 64.083 M35.602 65.528 C 35.500 65.910,35.395 66.110,35.368 65.973 C 35.320 65.727,35.598 64.833,35.723 64.833 C 35.758 64.833,35.704 65.146,35.602 65.528 M315.423 65.792 L 315.718 66.250 315.359 65.933 C 315.162 65.758,315.000 65.552,315.000 65.474 C 315.000 65.230,315.119 65.319,315.423 65.792 M157.231 66.303 C 157.278 66.378,157.095 66.407,156.825 66.368 C 156.554 66.328,156.333 66.267,156.333 66.231 C 156.333 66.104,157.149 66.170,157.231 66.303 M106.819 66.543 C 106.781 66.567,106.581 66.729,106.375 66.903 C 106.169 67.076,106.000 67.175,106.000 67.121 C 106.000 66.953,106.515 66.500,106.706 66.500 C 106.807 66.500,106.858 66.520,106.819 66.543 M107.222 67.875 C 107.179 68.631,107.025 69.775,106.881 70.417 C 106.649 71.453,106.471 72.377,106.304 73.417 C 106.274 73.600,106.156 73.849,106.042 73.970 C 105.927 74.091,105.833 74.337,105.833 74.515 C 105.833 74.811,105.127 76.298,104.623 77.063 C 103.601 78.614,101.685 79.102,101.433 77.876 C 101.263 77.053,102.067 73.665,102.510 73.333 C 102.572 73.287,102.680 73.063,102.751 72.833 C 103.013 71.987,104.927 68.940,105.833 67.924 C 106.444 67.240,107.185 66.500,107.259 66.500 C 107.282 66.500,107.266 67.119,107.222 67.875 M127.448 67.958 C 127.406 68.119,127.372 67.987,127.372 67.667 C 127.372 67.346,127.406 67.215,127.448 67.375 C 127.490 67.535,127.490 67.798,127.448 67.958 M121.785 70.206 C 121.745 70.414,121.711 70.283,121.709 69.917 C 121.707 69.550,121.739 69.380,121.781 69.540 C 121.823 69.699,121.824 69.999,121.785 70.206 M229.000 74.750 C 228.771 74.881,228.508 74.988,228.417 74.988 C 228.325 74.988,228.438 74.881,228.667 74.750 C 228.896 74.619,229.158 74.512,229.250 74.512 C 229.342 74.512,229.229 74.619,229.000 74.750 M25.785 75.540 C 25.745 75.747,25.711 75.617,25.709 75.250 C 25.707 74.883,25.739 74.714,25.781 74.873 C 25.823 75.032,25.824 75.332,25.785 75.540 M61.461 74.952 C 61.211 74.990,60.761 74.991,60.461 74.954 C 60.162 74.917,60.367 74.886,60.917 74.885 C 61.467 74.884,61.712 74.914,61.461 74.952 M25.454 80.542 C 25.417 80.840,25.387 80.596,25.387 80.000 C 25.387 79.404,25.417 79.160,25.454 79.458 C 25.491 79.756,25.491 80.244,25.454 80.542 M25.448 84.125 C 25.406 84.285,25.372 84.154,25.372 83.833 C 25.372 83.512,25.406 83.381,25.448 83.542 C 25.490 83.702,25.490 83.965,25.448 84.125 " stroke="none" fill="#f4f4f4" fill-rule="evenodd"></path><path id="path1" d="M32.833 18.917 C 33.144 19.237,33.436 19.500,33.482 19.500 C 33.528 19.500,33.311 19.237,33.000 18.917 C 32.689 18.596,32.397 18.333,32.351 18.333 C 32.305 18.333,32.522 18.596,32.833 18.917 M35.167 21.770 C 35.167 21.861,35.277 22.082,35.411 22.260 C 35.546 22.438,35.656 22.508,35.656 22.417 C 35.656 22.325,35.546 22.104,35.411 21.926 C 35.277 21.749,35.167 21.678,35.167 21.770 M16.609 24.034 C 16.556 24.237,16.551 24.440,16.597 24.485 C 16.642 24.531,16.723 24.404,16.776 24.203 C 16.828 24.002,16.949 23.885,17.045 23.944 C 17.145 24.007,17.168 23.971,17.099 23.859 C 16.914 23.560,16.715 23.631,16.609 24.034 M36.125 24.618 C 36.331 24.657,36.669 24.657,36.875 24.618 C 37.081 24.578,36.912 24.545,36.500 24.545 C 36.087 24.545,35.919 24.578,36.125 24.618 M204.044 24.786 C 204.297 24.825,204.672 24.824,204.877 24.784 C 205.082 24.744,204.875 24.713,204.417 24.714 C 203.958 24.716,203.791 24.748,204.044 24.786 M15.875 29.417 C 15.877 29.783,15.911 29.914,15.951 29.706 C 15.991 29.499,15.990 29.199,15.948 29.040 C 15.906 28.880,15.874 29.050,15.875 29.417 M129.682 30.500 C 129.677 31.004,129.733 31.514,129.809 31.632 C 129.885 31.753,129.915 31.421,129.877 30.882 C 129.783 29.566,129.695 29.393,129.682 30.500 M198.688 30.317 C 198.562 30.396,198.493 30.564,198.535 30.689 C 198.588 30.847,198.672 30.802,198.811 30.541 C 199.033 30.127,199.021 30.106,198.688 30.317 M123.539 31.500 C 123.424 31.683,123.388 31.833,123.458 31.833 C 123.529 31.833,123.680 31.683,123.795 31.500 C 123.909 31.317,123.945 31.167,123.875 31.167 C 123.804 31.167,123.653 31.317,123.539 31.500 M63.833 32.020 C 63.512 32.192,63.340 32.333,63.450 32.333 C 63.761 32.333,64.500 31.963,64.500 31.807 C 64.500 31.730,64.481 31.676,64.458 31.687 C 64.435 31.698,64.154 31.848,63.833 32.020 M16.389 32.637 C 16.389 32.998,16.444 33.122,16.556 33.011 C 16.667 32.900,16.667 32.720,16.556 32.470 C 16.402 32.126,16.389 32.139,16.389 32.637 M201.542 34.083 C 201.544 34.450,201.578 34.580,201.618 34.373 C 201.658 34.166,201.656 33.866,201.615 33.706 C 201.573 33.547,201.540 33.717,201.542 34.083 M161.995 35.843 C 161.894 36.031,161.836 36.259,161.867 36.350 C 161.897 36.440,162.008 36.286,162.113 36.007 C 162.332 35.427,162.266 35.336,161.995 35.843 M47.205 36.333 C 47.205 36.654,47.240 36.785,47.282 36.625 C 47.323 36.465,47.323 36.202,47.282 36.042 C 47.240 35.881,47.205 36.012,47.205 36.333 M58.591 37.333 L 58.295 37.917 58.659 37.536 C 58.860 37.326,58.993 37.064,58.955 36.952 C 58.918 36.841,58.754 37.012,58.591 37.333 M202.254 38.660 C 202.113 38.889,202.238 39.060,202.484 38.976 C 202.585 38.941,202.598 38.823,202.515 38.691 C 202.411 38.523,202.344 38.515,202.254 38.660 M215.195 39.250 C 215.192 39.433,215.255 39.733,215.333 39.917 C 215.516 40.341,215.516 39.903,215.333 39.333 C 215.226 38.998,215.199 38.982,215.195 39.250 M304.205 45.000 C 304.205 45.321,304.240 45.452,304.282 45.292 C 304.323 45.131,304.323 44.869,304.282 44.708 C 304.240 44.548,304.205 44.679,304.205 45.000 M282.500 46.083 C 282.500 46.221,282.575 46.333,282.667 46.333 C 282.758 46.333,282.833 46.221,282.833 46.083 C 282.833 45.946,282.758 45.833,282.667 45.833 C 282.575 45.833,282.500 45.946,282.500 46.083 M330.358 46.767 C 330.234 46.907,330.166 47.055,330.206 47.095 C 330.247 47.136,330.416 47.018,330.582 46.834 C 330.749 46.650,330.817 46.503,330.734 46.506 C 330.651 46.510,330.482 46.627,330.358 46.767 M131.833 47.046 C 131.833 47.285,131.911 47.529,132.007 47.587 C 132.120 47.658,132.141 47.532,132.067 47.222 C 131.913 46.584,131.833 46.523,131.833 47.046 M363.045 47.833 C 363.045 48.246,363.078 48.415,363.118 48.208 C 363.157 48.002,363.157 47.665,363.118 47.458 C 363.078 47.252,363.045 47.421,363.045 47.833 M214.379 48.667 C 214.379 49.079,214.411 49.248,214.451 49.042 C 214.491 48.835,214.491 48.498,214.451 48.292 C 214.411 48.085,214.379 48.254,214.379 48.667 M41.273 49.101 C 41.335 49.275,41.324 49.360,41.248 49.291 C 41.172 49.222,40.973 49.290,40.805 49.442 C 40.465 49.750,40.408 50.000,40.677 50.000 C 40.774 50.000,40.812 49.933,40.762 49.852 C 40.711 49.771,40.775 49.618,40.902 49.512 C 41.036 49.401,41.159 49.386,41.192 49.477 C 41.224 49.563,41.341 49.535,41.451 49.415 C 41.610 49.243,41.600 49.152,41.406 48.991 C 41.199 48.820,41.178 48.838,41.273 49.101 M251.205 49.333 C 251.205 49.654,251.240 49.785,251.282 49.625 C 251.323 49.465,251.323 49.202,251.282 49.042 C 251.240 48.881,251.205 49.012,251.205 49.333 M118.020 50.417 C 118.007 50.600,117.957 50.938,117.910 51.167 L 117.824 51.583 118.002 51.174 C 118.101 50.950,118.150 50.612,118.113 50.424 C 118.047 50.092,118.045 50.092,118.020 50.417 M348.613 51.083 C 348.745 51.739,348.776 51.761,348.872 51.262 C 348.916 51.032,348.894 50.879,348.823 50.923 C 348.753 50.966,348.654 50.908,348.604 50.793 C 348.554 50.678,348.558 50.808,348.613 51.083 M265.375 51.417 C 265.377 51.783,265.411 51.914,265.451 51.706 C 265.491 51.499,265.490 51.199,265.448 51.040 C 265.406 50.880,265.374 51.050,265.375 51.417 M223.372 52.500 C 223.372 52.821,223.406 52.952,223.448 52.792 C 223.490 52.631,223.490 52.369,223.448 52.208 C 223.406 52.048,223.372 52.179,223.372 52.500 M255.732 53.717 C 255.714 54.213,255.725 54.224,255.884 53.870 C 255.988 53.639,255.996 53.429,255.903 53.337 C 255.810 53.245,255.743 53.395,255.732 53.717 M101.539 54.000 C 101.539 54.321,101.573 54.452,101.615 54.292 C 101.657 54.131,101.657 53.869,101.615 53.708 C 101.573 53.548,101.539 53.679,101.539 54.000 M234.846 54.208 C 234.855 54.459,234.891 54.500,234.955 54.333 C 235.007 54.196,235.132 54.028,235.233 53.961 C 235.346 53.885,235.305 53.837,235.125 53.836 C 234.929 53.834,234.838 53.956,234.846 54.208 M237.124 54.327 C 236.969 54.535,236.975 54.546,237.153 54.388 C 237.275 54.281,237.470 54.229,237.587 54.274 C 237.704 54.319,237.839 54.292,237.888 54.214 C 238.046 53.957,237.320 54.065,237.124 54.327 M243.375 54.750 C 243.377 55.117,243.411 55.247,243.451 55.040 C 243.491 54.832,243.490 54.532,243.448 54.373 C 243.406 54.214,243.374 54.383,243.375 54.750 M203.519 54.792 C 203.707 55.357,203.833 55.487,203.833 55.115 C 203.833 54.995,203.722 54.751,203.586 54.574 C 203.359 54.278,203.353 54.296,203.519 54.792 M129.454 55.156 C 129.396 55.379,129.440 55.448,129.602 55.386 C 129.865 55.286,129.905 55.064,129.686 54.928 C 129.604 54.878,129.500 54.981,129.454 55.156 M117.388 56.250 C 117.389 56.892,117.419 57.134,117.455 56.788 C 117.491 56.442,117.490 55.917,117.454 55.621 C 117.417 55.325,117.387 55.608,117.388 56.250 M150.669 55.458 C 150.668 55.665,150.742 55.833,150.833 55.833 C 151.042 55.833,151.042 55.656,150.833 55.333 C 150.703 55.131,150.671 55.155,150.669 55.458 M112.372 56.667 C 112.372 56.987,112.406 57.119,112.448 56.958 C 112.490 56.798,112.490 56.535,112.448 56.375 C 112.406 56.215,112.372 56.346,112.372 56.667 M183.372 57.000 C 183.372 57.321,183.406 57.452,183.448 57.292 C 183.490 57.131,183.490 56.869,183.448 56.708 C 183.406 56.548,183.372 56.679,183.372 57.000 M35.686 57.742 C 35.674 58.370,35.725 58.675,35.825 58.575 C 35.921 58.479,35.929 58.087,35.845 57.583 L 35.706 56.750 35.686 57.742 M25.375 57.917 C 25.377 58.283,25.411 58.414,25.451 58.206 C 25.491 57.999,25.490 57.699,25.448 57.540 C 25.406 57.380,25.374 57.550,25.375 57.917 M115.000 58.583 C 114.882 58.725,114.823 58.879,114.869 58.925 C 114.915 58.971,115.049 58.892,115.167 58.750 C 115.284 58.608,115.343 58.454,115.298 58.409 C 115.252 58.363,115.118 58.441,115.000 58.583 M233.167 58.583 C 233.167 58.721,233.242 58.833,233.333 58.833 C 233.425 58.833,233.500 58.721,233.500 58.583 C 233.500 58.446,233.425 58.333,233.333 58.333 C 233.242 58.333,233.167 58.446,233.167 58.583 M333.527 58.924 C 333.421 59.158,333.336 59.439,333.340 59.550 C 333.343 59.660,333.457 59.495,333.592 59.183 C 333.877 58.527,333.817 58.288,333.527 58.924 M363.449 59.676 C 363.376 59.958,363.402 59.984,363.596 59.822 C 363.862 59.602,363.911 59.333,363.686 59.333 C 363.605 59.333,363.499 59.488,363.449 59.676 M117.381 60.417 C 117.382 60.875,117.415 61.043,117.453 60.789 C 117.491 60.536,117.490 60.161,117.451 59.956 C 117.411 59.751,117.380 59.958,117.381 60.417 M283.833 60.153 C 283.833 60.328,283.740 60.510,283.625 60.556 C 283.501 60.607,283.534 60.646,283.708 60.654 C 283.912 60.663,284.000 60.541,284.000 60.250 C 284.000 60.021,283.962 59.833,283.917 59.833 C 283.871 59.833,283.833 59.977,283.833 60.153 M81.944 60.571 C 81.879 60.742,81.865 60.920,81.913 60.968 C 81.961 61.016,82.006 60.949,82.013 60.819 C 82.020 60.690,82.126 60.846,82.250 61.167 C 82.374 61.487,82.477 61.637,82.480 61.500 C 82.491 60.958,82.074 60.234,81.944 60.571 M61.000 61.333 C 60.778 61.477,60.778 61.495,61.000 61.495 C 61.137 61.495,61.362 61.422,61.500 61.333 C 61.722 61.190,61.722 61.172,61.500 61.172 C 61.362 61.172,61.137 61.244,61.000 61.333 M148.729 61.743 C 148.672 61.892,148.672 62.061,148.729 62.118 C 148.787 62.175,148.833 62.097,148.833 61.944 C 148.833 61.597,149.115 61.579,149.221 61.920 C 149.281 62.112,149.293 62.106,149.275 61.892 C 149.241 61.511,148.859 61.407,148.729 61.743 M98.559 62.694 C 98.573 63.030,98.614 63.274,98.651 63.237 C 98.689 63.200,98.837 63.263,98.982 63.376 C 99.214 63.559,99.213 63.534,98.974 63.160 C 98.826 62.927,98.666 62.589,98.620 62.410 C 98.574 62.230,98.546 62.358,98.559 62.694 M368.097 63.125 C 368.356 63.662,368.500 63.803,368.500 63.518 C 368.500 63.437,368.351 63.193,368.168 62.977 L 367.837 62.583 368.097 63.125 M57.367 63.367 C 57.257 63.477,57.169 63.645,57.172 63.742 C 57.175 63.838,57.269 63.798,57.380 63.652 C 57.492 63.506,57.696 63.344,57.833 63.290 C 58.051 63.206,58.049 63.191,57.825 63.180 C 57.683 63.173,57.477 63.257,57.367 63.367 M24.605 64.647 C 24.541 65.415,24.522 66.077,24.562 66.118 C 24.666 66.222,24.886 63.740,24.796 63.472 C 24.755 63.350,24.669 63.879,24.605 64.647 M61.542 63.448 C 61.702 63.490,61.965 63.490,62.125 63.448 C 62.285 63.406,62.154 63.372,61.833 63.372 C 61.512 63.372,61.381 63.406,61.542 63.448 M126.209 64.417 C 126.211 64.783,126.245 64.914,126.285 64.706 C 126.324 64.499,126.323 64.199,126.281 64.040 C 126.239 63.880,126.207 64.050,126.209 64.417 M275.375 63.948 C 275.535 63.990,275.667 64.094,275.667 64.179 C 275.667 64.264,275.751 64.333,275.854 64.333 C 275.983 64.333,275.977 64.256,275.833 64.083 C 275.719 63.946,275.504 63.842,275.355 63.853 C 275.126 63.869,275.129 63.884,275.375 63.948 M35.489 65.279 C 35.396 65.523,35.342 65.836,35.368 65.973 C 35.395 66.110,35.500 65.910,35.602 65.528 C 35.810 64.746,35.746 64.603,35.489 65.279 M146.907 65.411 C 146.729 65.546,146.658 65.656,146.750 65.656 C 146.842 65.656,147.062 65.546,147.240 65.411 C 147.418 65.277,147.489 65.167,147.397 65.167 C 147.305 65.167,147.085 65.277,146.907 65.411 M315.000 65.474 C 315.000 65.552,315.162 65.758,315.359 65.933 L 315.718 66.250 315.423 65.792 C 315.119 65.319,315.000 65.230,315.000 65.474 M156.333 66.231 C 156.333 66.267,156.554 66.328,156.825 66.368 C 157.095 66.407,157.278 66.378,157.231 66.303 C 157.149 66.170,156.333 66.104,156.333 66.231 M106.262 66.762 C 105.865 67.158,105.948 67.262,106.375 66.903 C 106.581 66.729,106.781 66.567,106.819 66.543 C 106.858 66.520,106.807 66.500,106.706 66.500 C 106.606 66.500,106.406 66.618,106.262 66.762 M127.372 67.667 C 127.372 67.987,127.406 68.119,127.448 67.958 C 127.490 67.798,127.490 67.535,127.448 67.375 C 127.406 67.215,127.372 67.346,127.372 67.667 M121.709 69.917 C 121.711 70.283,121.745 70.414,121.785 70.206 C 121.824 69.999,121.823 69.699,121.781 69.540 C 121.739 69.380,121.707 69.550,121.709 69.917 M228.667 74.750 C 228.438 74.881,228.325 74.988,228.417 74.988 C 228.508 74.988,228.771 74.881,229.000 74.750 C 229.229 74.619,229.342 74.512,229.250 74.512 C 229.158 74.512,228.896 74.619,228.667 74.750 M25.709 75.250 C 25.711 75.617,25.745 75.747,25.785 75.540 C 25.824 75.332,25.823 75.032,25.781 74.873 C 25.739 74.714,25.707 74.883,25.709 75.250 M60.461 74.954 C 60.761 74.991,61.211 74.990,61.461 74.952 C 61.712 74.914,61.467 74.884,60.917 74.885 C 60.367 74.886,60.162 74.917,60.461 74.954 M25.387 80.000 C 25.387 80.596,25.417 80.840,25.454 80.542 C 25.491 80.244,25.491 79.756,25.454 79.458 C 25.417 79.160,25.387 79.404,25.387 80.000 M25.372 83.833 C 25.372 84.154,25.406 84.285,25.448 84.125 C 25.490 83.965,25.490 83.702,25.448 83.542 C 25.406 83.381,25.372 83.512,25.372 83.833 M36.393 86.500 C 36.393 87.371,36.422 87.727,36.456 87.292 C 36.490 86.856,36.490 86.144,36.456 85.708 C 36.422 85.273,36.393 85.629,36.393 86.500 " stroke="none" fill="#ececec" fill-rule="evenodd"></path><path id="path2" d="" stroke="none" fill="#f4f8f0" fill-rule="evenodd"></path><path id="path3" d="" stroke="none" fill="#f4f8f0" fill-rule="evenodd"></path><path id="path4" d="" stroke="none" fill="#f4f8f0" fill-rule="evenodd"></path></g></svg>